<svg xmlns="http://www.w3.org/2000/svg" width="1010" height="1058" viewBox="0 0 1010 1058"><defs><marker id="arrow" viewBox="0 0 10 10" refX="8" refY="5" markerWidth="6" markerHeight="6" orient="auto-start-reverse"><path d="M 0 0 L 10 5 L 0 10 z" fill="#7a8ca3" /></marker></defs><rect x="0" y="0" width="100%" height="100%" fill="#fbfcff" /><line x1="566.0" y1="377.0" x2="634.0" y2="73.0" stroke="#7a8ca3" stroke-width="1.2" marker-end="url(#arrow)" /><line x1="566.0" y1="301.0" x2="634.0" y2="73.0" stroke="#7a8ca3" stroke-width="1.2" marker-end="url(#arrow)" /><line x1="566.0" y1="225.0" x2="634.0" y2="73.0" stroke="#7a8ca3" stroke-width="1.2" marker-end="url(#arrow)" /><line x1="566.0" y1="149.0" x2="634.0" y2="73.0" stroke="#7a8ca3" stroke-width="1.2" marker-end="url(#arrow)" /><line x1="376.0" y1="909.0" x2="444.0" y2="73.0" stroke="#7a8ca3" stroke-width="1.2" marker-end="url(#arrow)" /><line x1="376.0" y1="833.0" x2="444.0" y2="73.0" stroke="#7a8ca3" stroke-width="1.2" marker-end="url(#arrow)" /><line x1="376.0" y1="757.0" x2="444.0" y2="73.0" stroke="#7a8ca3" stroke-width="1.2" marker-end="url(#arrow)" /><line x1="376.0" y1="681.0" x2="444.0" y2="73.0" stroke="#7a8ca3" stroke-width="1.2" marker-end="url(#arrow)" /><line x1="566.0" y1="681.0" x2="634.0" y2="149.0" stroke="#7a8ca3" stroke-width="1.2" marker-end="url(#arrow)" /><line x1="566.0" y1="605.0" x2="634.0" y2="149.0" stroke="#7a8ca3" stroke-width="1.2" marker-end="url(#arrow)" /><line x1="566.0" y1="529.0" x2="634.0" y2="149.0" stroke="#7a8ca3" stroke-width="1.2" marker-end="url(#arrow)" /><line x1="566.0" y1="453.0" x2="634.0" y2="149.0" stroke="#7a8ca3" stroke-width="1.2" marker-end="url(#arrow)" /><line x1="186.0" y1="301.0" x2="254.0" y2="301.0" stroke="#7a8ca3" stroke-width="1.2" marker-end="url(#arrow)" /><line x1="186.0" y1="225.0" x2="254.0" y2="225.0" stroke="#7a8ca3" stroke-width="1.2" marker-end="url(#arrow)" /><line x1="186.0" y1="149.0" x2="254.0" y2="149.0" stroke="#7a8ca3" stroke-width="1.2" marker-end="url(#arrow)" /><line x1="186.0" y1="73.0" x2="254.0" y2="73.0" stroke="#7a8ca3" stroke-width="1.2" marker-end="url(#arrow)" /><line x1="186.0" y1="605.0" x2="254.0" y2="605.0" stroke="#7a8ca3" stroke-width="1.2" marker-end="url(#arrow)" /><line x1="186.0" y1="529.0" x2="254.0" y2="529.0" stroke="#7a8ca3" stroke-width="1.2" marker-end="url(#arrow)" /><line x1="186.0" y1="453.0" x2="254.0" y2="453.0" stroke="#7a8ca3" stroke-width="1.2" marker-end="url(#arrow)" /><line x1="186.0" y1="377.0" x2="254.0" y2="377.0" stroke="#7a8ca3" stroke-width="1.2" marker-end="url(#arrow)" /><line x1="186.0" y1="301.0" x2="254.0" y2="909.0" stroke="#7a8ca3" stroke-width="1.2" marker-end="url(#arrow)" /><line x1="186.0" y1="605.0" x2="254.0" y2="909.0" stroke="#7a8ca3" stroke-width="1.2" marker-end="url(#arrow)" /><line x1="186.0" y1="225.0" x2="254.0" y2="833.0" stroke="#7a8ca3" stroke-width="1.2" marker-end="url(#arrow)" /><line x1="186.0" y1="529.0" x2="254.0" y2="833.0" stroke="#7a8ca3" stroke-width="1.2" marker-end="url(#arrow)" /><line x1="186.0" y1="149.0" x2="254.0" y2="757.0" stroke="#7a8ca3" stroke-width="1.2" marker-end="url(#arrow)" /><line x1="186.0" y1="453.0" x2="254.0" y2="757.0" stroke="#7a8ca3" stroke-width="1.2" marker-end="url(#arrow)" /><line x1="186.0" y1="73.0" x2="254.0" y2="681.0" stroke="#7a8ca3" stroke-width="1.2" marker-end="url(#arrow)" /><line x1="186.0" y1="377.0" x2="254.0" y2="681.0" stroke="#7a8ca3" stroke-width="1.2" marker-end="url(#arrow)" /><line x1="186.0" y1="301.0" x2="444.0" y2="377.0" stroke="#7a8ca3" stroke-width="1.2" marker-end="url(#arrow)" /><line x1="376.0" y1="605.0" x2="444.0" y2="377.0" stroke="#7a8ca3" stroke-width="1.2" marker-end="url(#arrow)" /><line x1="376.0" y1="909.0" x2="444.0" y2="301.0" stroke="#7a8ca3" stroke-width="1.2" marker-end="url(#arrow)" /><line x1="186.0" y1="225.0" x2="444.0" y2="301.0" stroke="#7a8ca3" stroke-width="1.2" marker-end="url(#arrow)" /><line x1="376.0" y1="529.0" x2="444.0" y2="301.0" stroke="#7a8ca3" stroke-width="1.2" marker-end="url(#arrow)" /><line x1="376.0" y1="909.0" x2="444.0" y2="225.0" stroke="#7a8ca3" stroke-width="1.2" marker-end="url(#arrow)" /><line x1="376.0" y1="833.0" x2="444.0" y2="225.0" stroke="#7a8ca3" stroke-width="1.2" marker-end="url(#arrow)" /><line x1="186.0" y1="149.0" x2="444.0" y2="225.0" stroke="#7a8ca3" stroke-width="1.2" marker-end="url(#arrow)" /><line x1="376.0" y1="453.0" x2="444.0" y2="225.0" stroke="#7a8ca3" stroke-width="1.2" marker-end="url(#arrow)" /><line x1="376.0" y1="909.0" x2="444.0" y2="149.0" stroke="#7a8ca3" stroke-width="1.2" marker-end="url(#arrow)" /><line x1="376.0" y1="833.0" x2="444.0" y2="149.0" stroke="#7a8ca3" stroke-width="1.2" marker-end="url(#arrow)" /><line x1="376.0" y1="757.0" x2="444.0" y2="149.0" stroke="#7a8ca3" stroke-width="1.2" marker-end="url(#arrow)" /><line x1="186.0" y1="73.0" x2="444.0" y2="149.0" stroke="#7a8ca3" stroke-width="1.2" marker-end="url(#arrow)" /><line x1="376.0" y1="377.0" x2="444.0" y2="149.0" stroke="#7a8ca3" stroke-width="1.2" marker-end="url(#arrow)" /><line x1="376.0" y1="301.0" x2="444.0" y2="681.0" stroke="#7a8ca3" stroke-width="1.2" marker-end="url(#arrow)" /><line x1="186.0" y1="605.0" x2="444.0" y2="681.0" stroke="#7a8ca3" stroke-width="1.2" marker-end="url(#arrow)" /><line x1="376.0" y1="909.0" x2="444.0" y2="605.0" stroke="#7a8ca3" stroke-width="1.2" marker-end="url(#arrow)" /><line x1="376.0" y1="225.0" x2="444.0" y2="605.0" stroke="#7a8ca3" stroke-width="1.2" marker-end="url(#arrow)" /><line x1="186.0" y1="529.0" x2="444.0" y2="605.0" stroke="#7a8ca3" stroke-width="1.2" marker-end="url(#arrow)" /><line x1="376.0" y1="909.0" x2="444.0" y2="529.0" stroke="#7a8ca3" stroke-width="1.2" marker-end="url(#arrow)" /><line x1="376.0" y1="833.0" x2="444.0" y2="529.0" stroke="#7a8ca3" stroke-width="1.2" marker-end="url(#arrow)" /><line x1="376.0" y1="149.0" x2="444.0" y2="529.0" stroke="#7a8ca3" stroke-width="1.2" marker-end="url(#arrow)" /><line x1="186.0" y1="453.0" x2="444.0" y2="529.0" stroke="#7a8ca3" stroke-width="1.2" marker-end="url(#arrow)" /><line x1="376.0" y1="909.0" x2="444.0" y2="453.0" stroke="#7a8ca3" stroke-width="1.2" marker-end="url(#arrow)" /><line x1="376.0" y1="833.0" x2="444.0" y2="453.0" stroke="#7a8ca3" stroke-width="1.2" marker-end="url(#arrow)" /><line x1="376.0" y1="757.0" x2="444.0" y2="453.0" stroke="#7a8ca3" stroke-width="1.2" marker-end="url(#arrow)" /><line x1="376.0" y1="73.0" x2="444.0" y2="453.0" stroke="#7a8ca3" stroke-width="1.2" marker-end="url(#arrow)" /><line x1="186.0" y1="377.0" x2="444.0" y2="453.0" stroke="#7a8ca3" stroke-width="1.2" marker-end="url(#arrow)" /><rect x="634" y="52" width="122" height="42" rx="9" ry="9" fill="#ffe8cc" stroke="#3d4f65" stroke-width="1.1" /><text x="642" y="69" font-family="Segoe UI, Arial, sans-serif" font-size="11" fill="#10243f">G</text><text x="642" y="84" font-family="Segoe UI, Arial, sans-serif" font-size="10" fill="#4b647f">OR | 0</text><rect x="444" y="52" width="122" height="42" rx="9" ry="9" fill="#ffe8cc" stroke="#3d4f65" stroke-width="1.1" /><text x="452" y="69" font-family="Segoe UI, Arial, sans-serif" font-size="11" fill="#10243f">E</text><text x="452" y="84" font-family="Segoe UI, Arial, sans-serif" font-size="10" fill="#4b647f">AND | 1</text><rect x="634" y="128" width="122" height="42" rx="9" ry="9" fill="#ffe8cc" stroke="#3d4f65" stroke-width="1.1" /><text x="642" y="145" font-family="Segoe UI, Arial, sans-serif" font-size="11" fill="#10243f">L</text><text x="642" y="160" font-family="Segoe UI, Arial, sans-serif" font-size="10" fill="#4b647f">OR | 0</text><rect x="64" y="280" width="122" height="42" rx="9" ry="9" fill="#d8f3dc" stroke="#3d4f65" stroke-width="1.1" /><text x="72" y="297" font-family="Segoe UI, Arial, sans-serif" font-size="11" fill="#10243f">a3</text><text x="72" y="312" font-family="Segoe UI, Arial, sans-serif" font-size="10" fill="#4b647f">PI | 1</text><rect x="64" y="204" width="122" height="42" rx="9" ry="9" fill="#d8f3dc" stroke="#3d4f65" stroke-width="1.1" /><text x="72" y="221" font-family="Segoe UI, Arial, sans-serif" font-size="11" fill="#10243f">a2</text><text x="72" y="236" font-family="Segoe UI, Arial, sans-serif" font-size="10" fill="#4b647f">PI | 0</text><rect x="64" y="128" width="122" height="42" rx="9" ry="9" fill="#d8f3dc" stroke="#3d4f65" stroke-width="1.1" /><text x="72" y="145" font-family="Segoe UI, Arial, sans-serif" font-size="11" fill="#10243f">a1</text><text x="72" y="160" font-family="Segoe UI, Arial, sans-serif" font-size="10" fill="#4b647f">PI | 1</text><rect x="64" y="52" width="122" height="42" rx="9" ry="9" fill="#d8f3dc" stroke="#3d4f65" stroke-width="1.1" /><text x="72" y="69" font-family="Segoe UI, Arial, sans-serif" font-size="11" fill="#10243f">a0</text><text x="72" y="84" font-family="Segoe UI, Arial, sans-serif" font-size="10" fill="#4b647f">PI | 0</text><rect x="64" y="584" width="122" height="42" rx="9" ry="9" fill="#d8f3dc" stroke="#3d4f65" stroke-width="1.1" /><text x="72" y="601" font-family="Segoe UI, Arial, sans-serif" font-size="11" fill="#10243f">b3</text><text x="72" y="616" font-family="Segoe UI, Arial, sans-serif" font-size="10" fill="#4b647f">PI | 1</text><rect x="64" y="508" width="122" height="42" rx="9" ry="9" fill="#d8f3dc" stroke="#3d4f65" stroke-width="1.1" /><text x="72" y="525" font-family="Segoe UI, Arial, sans-serif" font-size="11" fill="#10243f">b2</text><text x="72" y="540" font-family="Segoe UI, Arial, sans-serif" font-size="10" fill="#4b647f">PI | 0</text><rect x="64" y="432" width="122" height="42" rx="9" ry="9" fill="#d8f3dc" stroke="#3d4f65" stroke-width="1.1" /><text x="72" y="449" font-family="Segoe UI, Arial, sans-serif" font-size="11" fill="#10243f">b1</text><text x="72" y="464" font-family="Segoe UI, Arial, sans-serif" font-size="10" fill="#4b647f">PI | 1</text><rect x="64" y="356" width="122" height="42" rx="9" ry="9" fill="#d8f3dc" stroke="#3d4f65" stroke-width="1.1" /><text x="72" y="373" font-family="Segoe UI, Arial, sans-serif" font-size="11" fill="#10243f">b0</text><text x="72" y="388" font-family="Segoe UI, Arial, sans-serif" font-size="10" fill="#4b647f">PI | 0</text><rect x="254" y="280" width="122" height="42" rx="9" ry="9" fill="#e7f5ff" stroke="#3d4f65" stroke-width="1.1" /><text x="262" y="297" font-family="Segoe UI, Arial, sans-serif" font-size="11" fill="#10243f">na3</text><text x="262" y="312" font-family="Segoe UI, Arial, sans-serif" font-size="10" fill="#4b647f">NOT | 0</text><rect x="254" y="204" width="122" height="42" rx="9" ry="9" fill="#e7f5ff" stroke="#3d4f65" stroke-width="1.1" /><text x="262" y="221" font-family="Segoe UI, Arial, sans-serif" font-size="11" fill="#10243f">na2</text><text x="262" y="236" font-family="Segoe UI, Arial, sans-serif" font-size="10" fill="#4b647f">NOT | 1</text><rect x="254" y="128" width="122" height="42" rx="9" ry="9" fill="#e7f5ff" stroke="#3d4f65" stroke-width="1.1" /><text x="262" y="145" font-family="Segoe UI, Arial, sans-serif" font-size="11" fill="#10243f">na1</text><text x="262" y="160" font-family="Segoe UI, Arial, sans-serif" font-size="10" fill="#4b647f">NOT | 0</text><rect x="254" y="52" width="122" height="42" rx="9" ry="9" fill="#e7f5ff" stroke="#3d4f65" stroke-width="1.1" /><text x="262" y="69" font-family="Segoe UI, Arial, sans-serif" font-size="11" fill="#10243f">na0</text><text x="262" y="84" font-family="Segoe UI, Arial, sans-serif" font-size="10" fill="#4b647f">NOT | 1</text><rect x="254" y="584" width="122" height="42" rx="9" ry="9" fill="#e7f5ff" stroke="#3d4f65" stroke-width="1.1" /><text x="262" y="601" font-family="Segoe UI, Arial, sans-serif" font-size="11" fill="#10243f">nb3</text><text x="262" y="616" font-family="Segoe UI, Arial, sans-serif" font-size="10" fill="#4b647f">NOT | 0</text><rect x="254" y="508" width="122" height="42" rx="9" ry="9" fill="#e7f5ff" stroke="#3d4f65" stroke-width="1.1" /><text x="262" y="525" font-family="Segoe UI, Arial, sans-serif" font-size="11" fill="#10243f">nb2</text><text x="262" y="540" font-family="Segoe UI, Arial, sans-serif" font-size="10" fill="#4b647f">NOT | 1</text><rect x="254" y="432" width="122" height="42" rx="9" ry="9" fill="#e7f5ff" stroke="#3d4f65" stroke-width="1.1" /><text x="262" y="449" font-family="Segoe UI, Arial, sans-serif" font-size="11" fill="#10243f">nb1</text><text x="262" y="464" font-family="Segoe UI, Arial, sans-serif" font-size="10" fill="#4b647f">NOT | 0</text><rect x="254" y="356" width="122" height="42" rx="9" ry="9" fill="#e7f5ff" stroke="#3d4f65" stroke-width="1.1" /><text x="262" y="373" font-family="Segoe UI, Arial, sans-serif" font-size="11" fill="#10243f">nb0</text><text x="262" y="388" font-family="Segoe UI, Arial, sans-serif" font-size="10" fill="#4b647f">NOT | 1</text><rect x="254" y="888" width="122" height="42" rx="9" ry="9" fill="#e7f5ff" stroke="#3d4f65" stroke-width="1.1" /><text x="262" y="905" font-family="Segoe UI, Arial, sans-serif" font-size="11" fill="#10243f">x3</text><text x="262" y="920" font-family="Segoe UI, Arial, sans-serif" font-size="10" fill="#4b647f">XNOR | 1</text><rect x="254" y="812" width="122" height="42" rx="9" ry="9" fill="#e7f5ff" stroke="#3d4f65" stroke-width="1.1" /><text x="262" y="829" font-family="Segoe UI, Arial, sans-serif" font-size="11" fill="#10243f">x2</text><text x="262" y="844" font-family="Segoe UI, Arial, sans-serif" font-size="10" fill="#4b647f">XNOR | 1</text><rect x="254" y="736" width="122" height="42" rx="9" ry="9" fill="#e7f5ff" stroke="#3d4f65" stroke-width="1.1" /><text x="262" y="753" font-family="Segoe UI, Arial, sans-serif" font-size="11" fill="#10243f">x1</text><text x="262" y="768" font-family="Segoe UI, Arial, sans-serif" font-size="10" fill="#4b647f">XNOR | 1</text><rect x="254" y="660" width="122" height="42" rx="9" ry="9" fill="#e7f5ff" stroke="#3d4f65" stroke-width="1.1" /><text x="262" y="677" font-family="Segoe UI, Arial, sans-serif" font-size="11" fill="#10243f">x0</text><text x="262" y="692" font-family="Segoe UI, Arial, sans-serif" font-size="10" fill="#4b647f">XNOR | 1</text><rect x="444" y="356" width="122" height="42" rx="9" ry="9" fill="#e7f5ff" stroke="#3d4f65" stroke-width="1.1" /><text x="452" y="373" font-family="Segoe UI, Arial, sans-serif" font-size="11" fill="#10243f">g_term3</text><text x="452" y="388" font-family="Segoe UI, Arial, sans-serif" font-size="10" fill="#4b647f">AND | 0</text><rect x="444" y="280" width="122" height="42" rx="9" ry="9" fill="#e7f5ff" stroke="#3d4f65" stroke-width="1.1" /><text x="452" y="297" font-family="Segoe UI, Arial, sans-serif" font-size="11" fill="#10243f">g_term2</text><text x="452" y="312" font-family="Segoe UI, Arial, sans-serif" font-size="10" fill="#4b647f">AND | 0</text><rect x="444" y="204" width="122" height="42" rx="9" ry="9" fill="#e7f5ff" stroke="#3d4f65" stroke-width="1.1" /><text x="452" y="221" font-family="Segoe UI, Arial, sans-serif" font-size="11" fill="#10243f">g_term1</text><text x="452" y="236" font-family="Segoe UI, Arial, sans-serif" font-size="10" fill="#4b647f">AND | 0</text><rect x="444" y="128" width="122" height="42" rx="9" ry="9" fill="#e7f5ff" stroke="#3d4f65" stroke-width="1.1" /><text x="452" y="145" font-family="Segoe UI, Arial, sans-serif" font-size="11" fill="#10243f">g_term0</text><text x="452" y="160" font-family="Segoe UI, Arial, sans-serif" font-size="10" fill="#4b647f">AND | 0</text><rect x="444" y="660" width="122" height="42" rx="9" ry="9" fill="#e7f5ff" stroke="#3d4f65" stroke-width="1.1" /><text x="452" y="677" font-family="Segoe UI, Arial, sans-serif" font-size="11" fill="#10243f">l_term3</text><text x="452" y="692" font-family="Segoe UI, Arial, sans-serif" font-size="10" fill="#4b647f">AND | 0</text><rect x="444" y="584" width="122" height="42" rx="9" ry="9" fill="#e7f5ff" stroke="#3d4f65" stroke-width="1.1" /><text x="452" y="601" font-family="Segoe UI, Arial, sans-serif" font-size="11" fill="#10243f">l_term2</text><text x="452" y="616" font-family="Segoe UI, Arial, sans-serif" font-size="10" fill="#4b647f">AND | 0</text><rect x="444" y="508" width="122" height="42" rx="9" ry="9" fill="#e7f5ff" stroke="#3d4f65" stroke-width="1.1" /><text x="452" y="525" font-family="Segoe UI, Arial, sans-serif" font-size="11" fill="#10243f">l_term1</text><text x="452" y="540" font-family="Segoe UI, Arial, sans-serif" font-size="10" fill="#4b647f">AND | 0</text><rect x="444" y="432" width="122" height="42" rx="9" ry="9" fill="#e7f5ff" stroke="#3d4f65" stroke-width="1.1" /><text x="452" y="449" font-family="Segoe UI, Arial, sans-serif" font-size="11" fill="#10243f">l_term0</text><text x="452" y="464" font-family="Segoe UI, Arial, sans-serif" font-size="10" fill="#4b647f">AND | 0</text></svg>