<svg xmlns="http://www.w3.org/2000/svg" width="2720" height="1970" viewBox="0 0 2720 1970"><defs><marker id="arrow" viewBox="0 0 10 10" refX="8" refY="5" markerWidth="6" markerHeight="6" orient="auto-start-reverse"><path d="M 0 0 L 10 5 L 0 10 z" fill="#7a8ca3" /></marker></defs><rect x="0" y="0" width="100%" height="100%" fill="#fbfcff" /><line x1="2276.0" y1="301.0" x2="2344.0" y2="377.0" stroke="#7a8ca3" stroke-width="1.2" marker-end="url(#arrow)" /><line x1="2086.0" y1="301.0" x2="2344.0" y2="377.0" stroke="#7a8ca3" stroke-width="1.2" marker-end="url(#arrow)" /><line x1="2276.0" y1="225.0" x2="2344.0" y2="301.0" stroke="#7a8ca3" stroke-width="1.2" marker-end="url(#arrow)" /><line x1="2086.0" y1="225.0" x2="2344.0" y2="301.0" stroke="#7a8ca3" stroke-width="1.2" marker-end="url(#arrow)" /><line x1="2276.0" y1="149.0" x2="2344.0" y2="225.0" stroke="#7a8ca3" stroke-width="1.2" marker-end="url(#arrow)" /><line x1="2086.0" y1="149.0" x2="2344.0" y2="225.0" stroke="#7a8ca3" stroke-width="1.2" marker-end="url(#arrow)" /><line x1="2276.0" y1="73.0" x2="2344.0" y2="149.0" stroke="#7a8ca3" stroke-width="1.2" marker-end="url(#arrow)" /><line x1="2086.0" y1="73.0" x2="2344.0" y2="149.0" stroke="#7a8ca3" stroke-width="1.2" marker-end="url(#arrow)" /><line x1="376.0" y1="757.0" x2="1584.0" y2="73.0" stroke="#7a8ca3" stroke-width="1.2" marker-end="url(#arrow)" /><line x1="1516.0" y1="73.0" x2="1584.0" y2="73.0" stroke="#7a8ca3" stroke-width="1.2" marker-end="url(#arrow)" /><line x1="376.0" y1="605.0" x2="1204.0" y2="73.0" stroke="#7a8ca3" stroke-width="1.2" marker-end="url(#arrow)" /><line x1="1136.0" y1="73.0" x2="1204.0" y2="73.0" stroke="#7a8ca3" stroke-width="1.2" marker-end="url(#arrow)" /><line x1="376.0" y1="453.0" x2="824.0" y2="73.0" stroke="#7a8ca3" stroke-width="1.2" marker-end="url(#arrow)" /><line x1="756.0" y1="73.0" x2="824.0" y2="73.0" stroke="#7a8ca3" stroke-width="1.2" marker-end="url(#arrow)" /><line x1="376.0" y1="301.0" x2="444.0" y2="73.0" stroke="#7a8ca3" stroke-width="1.2" marker-end="url(#arrow)" /><line x1="186.0" y1="1289.0" x2="444.0" y2="73.0" stroke="#7a8ca3" stroke-width="1.2" marker-end="url(#arrow)" /><line x1="2276.0" y1="377.0" x2="2344.0" y2="73.0" stroke="#7a8ca3" stroke-width="1.2" marker-end="url(#arrow)" /><line x1="2086.0" y1="377.0" x2="2344.0" y2="73.0" stroke="#7a8ca3" stroke-width="1.2" marker-end="url(#arrow)" /><line x1="186.0" y1="73.0" x2="254.0" y2="301.0" stroke="#7a8ca3" stroke-width="1.2" marker-end="url(#arrow)" /><line x1="186.0" y1="681.0" x2="254.0" y2="301.0" stroke="#7a8ca3" stroke-width="1.2" marker-end="url(#arrow)" /><line x1="186.0" y1="73.0" x2="254.0" y2="377.0" stroke="#7a8ca3" stroke-width="1.2" marker-end="url(#arrow)" /><line x1="186.0" y1="681.0" x2="254.0" y2="377.0" stroke="#7a8ca3" stroke-width="1.2" marker-end="url(#arrow)" /><line x1="376.0" y1="301.0" x2="444.0" y2="377.0" stroke="#7a8ca3" stroke-width="1.2" marker-end="url(#arrow)" /><line x1="186.0" y1="1289.0" x2="444.0" y2="377.0" stroke="#7a8ca3" stroke-width="1.2" marker-end="url(#arrow)" /><line x1="376.0" y1="377.0" x2="634.0" y2="73.0" stroke="#7a8ca3" stroke-width="1.2" marker-end="url(#arrow)" /><line x1="566.0" y1="377.0" x2="634.0" y2="73.0" stroke="#7a8ca3" stroke-width="1.2" marker-end="url(#arrow)" /><line x1="186.0" y1="149.0" x2="254.0" y2="453.0" stroke="#7a8ca3" stroke-width="1.2" marker-end="url(#arrow)" /><line x1="186.0" y1="757.0" x2="254.0" y2="453.0" stroke="#7a8ca3" stroke-width="1.2" marker-end="url(#arrow)" /><line x1="186.0" y1="149.0" x2="254.0" y2="529.0" stroke="#7a8ca3" stroke-width="1.2" marker-end="url(#arrow)" /><line x1="186.0" y1="757.0" x2="254.0" y2="529.0" stroke="#7a8ca3" stroke-width="1.2" marker-end="url(#arrow)" /><line x1="376.0" y1="453.0" x2="824.0" y2="301.0" stroke="#7a8ca3" stroke-width="1.2" marker-end="url(#arrow)" /><line x1="756.0" y1="73.0" x2="824.0" y2="301.0" stroke="#7a8ca3" stroke-width="1.2" marker-end="url(#arrow)" /><line x1="376.0" y1="529.0" x2="1014.0" y2="73.0" stroke="#7a8ca3" stroke-width="1.2" marker-end="url(#arrow)" /><line x1="946.0" y1="301.0" x2="1014.0" y2="73.0" stroke="#7a8ca3" stroke-width="1.2" marker-end="url(#arrow)" /><line x1="186.0" y1="225.0" x2="254.0" y2="605.0" stroke="#7a8ca3" stroke-width="1.2" marker-end="url(#arrow)" /><line x1="186.0" y1="833.0" x2="254.0" y2="605.0" stroke="#7a8ca3" stroke-width="1.2" marker-end="url(#arrow)" /><line x1="186.0" y1="225.0" x2="254.0" y2="681.0" stroke="#7a8ca3" stroke-width="1.2" marker-end="url(#arrow)" /><line x1="186.0" y1="833.0" x2="254.0" y2="681.0" stroke="#7a8ca3" stroke-width="1.2" marker-end="url(#arrow)" /><line x1="376.0" y1="605.0" x2="1204.0" y2="301.0" stroke="#7a8ca3" stroke-width="1.2" marker-end="url(#arrow)" /><line x1="1136.0" y1="73.0" x2="1204.0" y2="301.0" stroke="#7a8ca3" stroke-width="1.2" marker-end="url(#arrow)" /><line x1="376.0" y1="681.0" x2="1394.0" y2="73.0" stroke="#7a8ca3" stroke-width="1.2" marker-end="url(#arrow)" /><line x1="1326.0" y1="301.0" x2="1394.0" y2="73.0" stroke="#7a8ca3" stroke-width="1.2" marker-end="url(#arrow)" /><line x1="186.0" y1="301.0" x2="254.0" y2="757.0" stroke="#7a8ca3" stroke-width="1.2" marker-end="url(#arrow)" /><line x1="186.0" y1="909.0" x2="254.0" y2="757.0" stroke="#7a8ca3" stroke-width="1.2" marker-end="url(#arrow)" /><line x1="186.0" y1="301.0" x2="254.0" y2="833.0" stroke="#7a8ca3" stroke-width="1.2" marker-end="url(#arrow)" /><line x1="186.0" y1="909.0" x2="254.0" y2="833.0" stroke="#7a8ca3" stroke-width="1.2" marker-end="url(#arrow)" /><line x1="376.0" y1="757.0" x2="1584.0" y2="149.0" stroke="#7a8ca3" stroke-width="1.2" marker-end="url(#arrow)" /><line x1="1516.0" y1="73.0" x2="1584.0" y2="149.0" stroke="#7a8ca3" stroke-width="1.2" marker-end="url(#arrow)" /><line x1="376.0" y1="833.0" x2="1774.0" y2="73.0" stroke="#7a8ca3" stroke-width="1.2" marker-end="url(#arrow)" /><line x1="1706.0" y1="149.0" x2="1774.0" y2="73.0" stroke="#7a8ca3" stroke-width="1.2" marker-end="url(#arrow)" /><line x1="186.0" y1="377.0" x2="254.0" y2="225.0" stroke="#7a8ca3" stroke-width="1.2" marker-end="url(#arrow)" /><line x1="186.0" y1="985.0" x2="254.0" y2="225.0" stroke="#7a8ca3" stroke-width="1.2" marker-end="url(#arrow)" /><line x1="186.0" y1="377.0" x2="254.0" y2="73.0" stroke="#7a8ca3" stroke-width="1.2" marker-end="url(#arrow)" /><line x1="186.0" y1="985.0" x2="254.0" y2="73.0" stroke="#7a8ca3" stroke-width="1.2" marker-end="url(#arrow)" /><line x1="186.0" y1="453.0" x2="254.0" y2="985.0" stroke="#7a8ca3" stroke-width="1.2" marker-end="url(#arrow)" /><line x1="186.0" y1="1061.0" x2="254.0" y2="985.0" stroke="#7a8ca3" stroke-width="1.2" marker-end="url(#arrow)" /><line x1="376.0" y1="985.0" x2="444.0" y2="225.0" stroke="#7a8ca3" stroke-width="1.2" marker-end="url(#arrow)" /><line x1="376.0" y1="73.0" x2="444.0" y2="225.0" stroke="#7a8ca3" stroke-width="1.2" marker-end="url(#arrow)" /><line x1="186.0" y1="453.0" x2="254.0" y2="1061.0" stroke="#7a8ca3" stroke-width="1.2" marker-end="url(#arrow)" /><line x1="186.0" y1="1061.0" x2="254.0" y2="1061.0" stroke="#7a8ca3" stroke-width="1.2" marker-end="url(#arrow)" /><line x1="376.0" y1="985.0" x2="444.0" y2="453.0" stroke="#7a8ca3" stroke-width="1.2" marker-end="url(#arrow)" /><line x1="376.0" y1="73.0" x2="444.0" y2="453.0" stroke="#7a8ca3" stroke-width="1.2" marker-end="url(#arrow)" /><line x1="376.0" y1="1061.0" x2="634.0" y2="149.0" stroke="#7a8ca3" stroke-width="1.2" marker-end="url(#arrow)" /><line x1="566.0" y1="453.0" x2="634.0" y2="149.0" stroke="#7a8ca3" stroke-width="1.2" marker-end="url(#arrow)" /><line x1="186.0" y1="529.0" x2="254.0" y2="1289.0" stroke="#7a8ca3" stroke-width="1.2" marker-end="url(#arrow)" /><line x1="186.0" y1="1137.0" x2="254.0" y2="1289.0" stroke="#7a8ca3" stroke-width="1.2" marker-end="url(#arrow)" /><line x1="376.0" y1="1289.0" x2="824.0" y2="149.0" stroke="#7a8ca3" stroke-width="1.2" marker-end="url(#arrow)" /><line x1="756.0" y1="149.0" x2="824.0" y2="149.0" stroke="#7a8ca3" stroke-width="1.2" marker-end="url(#arrow)" /><line x1="186.0" y1="529.0" x2="254.0" y2="1365.0" stroke="#7a8ca3" stroke-width="1.2" marker-end="url(#arrow)" /><line x1="186.0" y1="1137.0" x2="254.0" y2="1365.0" stroke="#7a8ca3" stroke-width="1.2" marker-end="url(#arrow)" /><line x1="376.0" y1="1289.0" x2="824.0" y2="377.0" stroke="#7a8ca3" stroke-width="1.2" marker-end="url(#arrow)" /><line x1="756.0" y1="149.0" x2="824.0" y2="377.0" stroke="#7a8ca3" stroke-width="1.2" marker-end="url(#arrow)" /><line x1="376.0" y1="1365.0" x2="1014.0" y2="149.0" stroke="#7a8ca3" stroke-width="1.2" marker-end="url(#arrow)" /><line x1="946.0" y1="377.0" x2="1014.0" y2="149.0" stroke="#7a8ca3" stroke-width="1.2" marker-end="url(#arrow)" /><line x1="186.0" y1="605.0" x2="254.0" y2="1593.0" stroke="#7a8ca3" stroke-width="1.2" marker-end="url(#arrow)" /><line x1="186.0" y1="1213.0" x2="254.0" y2="1593.0" stroke="#7a8ca3" stroke-width="1.2" marker-end="url(#arrow)" /><line x1="376.0" y1="1593.0" x2="1204.0" y2="149.0" stroke="#7a8ca3" stroke-width="1.2" marker-end="url(#arrow)" /><line x1="1136.0" y1="149.0" x2="1204.0" y2="149.0" stroke="#7a8ca3" stroke-width="1.2" marker-end="url(#arrow)" /><line x1="186.0" y1="605.0" x2="254.0" y2="1669.0" stroke="#7a8ca3" stroke-width="1.2" marker-end="url(#arrow)" /><line x1="186.0" y1="1213.0" x2="254.0" y2="1669.0" stroke="#7a8ca3" stroke-width="1.2" marker-end="url(#arrow)" /><line x1="376.0" y1="1593.0" x2="1204.0" y2="377.0" stroke="#7a8ca3" stroke-width="1.2" marker-end="url(#arrow)" /><line x1="1136.0" y1="149.0" x2="1204.0" y2="377.0" stroke="#7a8ca3" stroke-width="1.2" marker-end="url(#arrow)" /><line x1="376.0" y1="1669.0" x2="1394.0" y2="149.0" stroke="#7a8ca3" stroke-width="1.2" marker-end="url(#arrow)" /><line x1="1326.0" y1="377.0" x2="1394.0" y2="149.0" stroke="#7a8ca3" stroke-width="1.2" marker-end="url(#arrow)" /><line x1="186.0" y1="377.0" x2="254.0" y2="909.0" stroke="#7a8ca3" stroke-width="1.2" marker-end="url(#arrow)" /><line x1="186.0" y1="985.0" x2="254.0" y2="909.0" stroke="#7a8ca3" stroke-width="1.2" marker-end="url(#arrow)" /><line x1="376.0" y1="909.0" x2="444.0" y2="149.0" stroke="#7a8ca3" stroke-width="1.2" marker-end="url(#arrow)" /><line x1="186.0" y1="377.0" x2="254.0" y2="149.0" stroke="#7a8ca3" stroke-width="1.2" marker-end="url(#arrow)" /><line x1="186.0" y1="985.0" x2="254.0" y2="149.0" stroke="#7a8ca3" stroke-width="1.2" marker-end="url(#arrow)" /><line x1="186.0" y1="453.0" x2="254.0" y2="1137.0" stroke="#7a8ca3" stroke-width="1.2" marker-end="url(#arrow)" /><line x1="186.0" y1="1061.0" x2="254.0" y2="1137.0" stroke="#7a8ca3" stroke-width="1.2" marker-end="url(#arrow)" /><line x1="376.0" y1="1137.0" x2="444.0" y2="301.0" stroke="#7a8ca3" stroke-width="1.2" marker-end="url(#arrow)" /><line x1="376.0" y1="149.0" x2="444.0" y2="301.0" stroke="#7a8ca3" stroke-width="1.2" marker-end="url(#arrow)" /><line x1="186.0" y1="453.0" x2="254.0" y2="1213.0" stroke="#7a8ca3" stroke-width="1.2" marker-end="url(#arrow)" /><line x1="186.0" y1="1061.0" x2="254.0" y2="1213.0" stroke="#7a8ca3" stroke-width="1.2" marker-end="url(#arrow)" /><line x1="376.0" y1="1137.0" x2="444.0" y2="529.0" stroke="#7a8ca3" stroke-width="1.2" marker-end="url(#arrow)" /><line x1="376.0" y1="149.0" x2="444.0" y2="529.0" stroke="#7a8ca3" stroke-width="1.2" marker-end="url(#arrow)" /><line x1="376.0" y1="1213.0" x2="634.0" y2="225.0" stroke="#7a8ca3" stroke-width="1.2" marker-end="url(#arrow)" /><line x1="566.0" y1="529.0" x2="634.0" y2="225.0" stroke="#7a8ca3" stroke-width="1.2" marker-end="url(#arrow)" /><line x1="186.0" y1="529.0" x2="254.0" y2="1441.0" stroke="#7a8ca3" stroke-width="1.2" marker-end="url(#arrow)" /><line x1="186.0" y1="1137.0" x2="254.0" y2="1441.0" stroke="#7a8ca3" stroke-width="1.2" marker-end="url(#arrow)" /><line x1="376.0" y1="1441.0" x2="824.0" y2="225.0" stroke="#7a8ca3" stroke-width="1.2" marker-end="url(#arrow)" /><line x1="756.0" y1="225.0" x2="824.0" y2="225.0" stroke="#7a8ca3" stroke-width="1.2" marker-end="url(#arrow)" /><line x1="186.0" y1="529.0" x2="254.0" y2="1517.0" stroke="#7a8ca3" stroke-width="1.2" marker-end="url(#arrow)" /><line x1="186.0" y1="1137.0" x2="254.0" y2="1517.0" stroke="#7a8ca3" stroke-width="1.2" marker-end="url(#arrow)" /><line x1="376.0" y1="1441.0" x2="824.0" y2="453.0" stroke="#7a8ca3" stroke-width="1.2" marker-end="url(#arrow)" /><line x1="756.0" y1="225.0" x2="824.0" y2="453.0" stroke="#7a8ca3" stroke-width="1.2" marker-end="url(#arrow)" /><line x1="376.0" y1="1517.0" x2="1014.0" y2="225.0" stroke="#7a8ca3" stroke-width="1.2" marker-end="url(#arrow)" /><line x1="946.0" y1="453.0" x2="1014.0" y2="225.0" stroke="#7a8ca3" stroke-width="1.2" marker-end="url(#arrow)" /><line x1="186.0" y1="605.0" x2="254.0" y2="1745.0" stroke="#7a8ca3" stroke-width="1.2" marker-end="url(#arrow)" /><line x1="186.0" y1="1213.0" x2="254.0" y2="1745.0" stroke="#7a8ca3" stroke-width="1.2" marker-end="url(#arrow)" /><line x1="376.0" y1="1745.0" x2="1204.0" y2="225.0" stroke="#7a8ca3" stroke-width="1.2" marker-end="url(#arrow)" /><line x1="1136.0" y1="225.0" x2="1204.0" y2="225.0" stroke="#7a8ca3" stroke-width="1.2" marker-end="url(#arrow)" /><line x1="186.0" y1="605.0" x2="254.0" y2="1821.0" stroke="#7a8ca3" stroke-width="1.2" marker-end="url(#arrow)" /><line x1="186.0" y1="1213.0" x2="254.0" y2="1821.0" stroke="#7a8ca3" stroke-width="1.2" marker-end="url(#arrow)" /><line x1="376.0" y1="1745.0" x2="1204.0" y2="453.0" stroke="#7a8ca3" stroke-width="1.2" marker-end="url(#arrow)" /><line x1="1136.0" y1="225.0" x2="1204.0" y2="453.0" stroke="#7a8ca3" stroke-width="1.2" marker-end="url(#arrow)" /><line x1="376.0" y1="1821.0" x2="1394.0" y2="225.0" stroke="#7a8ca3" stroke-width="1.2" marker-end="url(#arrow)" /><line x1="1326.0" y1="453.0" x2="1394.0" y2="225.0" stroke="#7a8ca3" stroke-width="1.2" marker-end="url(#arrow)" /><line x1="1896.0" y1="73.0" x2="1964.0" y2="453.0" stroke="#7a8ca3" stroke-width="1.2" marker-end="url(#arrow)" /><line x1="376.0" y1="225.0" x2="2154.0" y2="73.0" stroke="#7a8ca3" stroke-width="1.2" marker-end="url(#arrow)" /><line x1="2086.0" y1="453.0" x2="2154.0" y2="73.0" stroke="#7a8ca3" stroke-width="1.2" marker-end="url(#arrow)" /><line x1="566.0" y1="149.0" x2="1964.0" y2="73.0" stroke="#7a8ca3" stroke-width="1.2" marker-end="url(#arrow)" /><line x1="1896.0" y1="73.0" x2="1964.0" y2="73.0" stroke="#7a8ca3" stroke-width="1.2" marker-end="url(#arrow)" /><line x1="566.0" y1="225.0" x2="2154.0" y2="149.0" stroke="#7a8ca3" stroke-width="1.2" marker-end="url(#arrow)" /><line x1="2086.0" y1="453.0" x2="2154.0" y2="149.0" stroke="#7a8ca3" stroke-width="1.2" marker-end="url(#arrow)" /><line x1="566.0" y1="301.0" x2="1964.0" y2="149.0" stroke="#7a8ca3" stroke-width="1.2" marker-end="url(#arrow)" /><line x1="1896.0" y1="73.0" x2="1964.0" y2="149.0" stroke="#7a8ca3" stroke-width="1.2" marker-end="url(#arrow)" /><line x1="946.0" y1="149.0" x2="2154.0" y2="225.0" stroke="#7a8ca3" stroke-width="1.2" marker-end="url(#arrow)" /><line x1="2086.0" y1="453.0" x2="2154.0" y2="225.0" stroke="#7a8ca3" stroke-width="1.2" marker-end="url(#arrow)" /><line x1="946.0" y1="225.0" x2="1964.0" y2="225.0" stroke="#7a8ca3" stroke-width="1.2" marker-end="url(#arrow)" /><line x1="1896.0" y1="73.0" x2="1964.0" y2="225.0" stroke="#7a8ca3" stroke-width="1.2" marker-end="url(#arrow)" /><line x1="1326.0" y1="149.0" x2="2154.0" y2="301.0" stroke="#7a8ca3" stroke-width="1.2" marker-end="url(#arrow)" /><line x1="2086.0" y1="453.0" x2="2154.0" y2="301.0" stroke="#7a8ca3" stroke-width="1.2" marker-end="url(#arrow)" /><line x1="1326.0" y1="225.0" x2="1964.0" y2="301.0" stroke="#7a8ca3" stroke-width="1.2" marker-end="url(#arrow)" /><line x1="1896.0" y1="73.0" x2="1964.0" y2="301.0" stroke="#7a8ca3" stroke-width="1.2" marker-end="url(#arrow)" /><line x1="1516.0" y1="149.0" x2="2154.0" y2="377.0" stroke="#7a8ca3" stroke-width="1.2" marker-end="url(#arrow)" /><line x1="2086.0" y1="453.0" x2="2154.0" y2="377.0" stroke="#7a8ca3" stroke-width="1.2" marker-end="url(#arrow)" /><line x1="1516.0" y1="225.0" x2="1964.0" y2="377.0" stroke="#7a8ca3" stroke-width="1.2" marker-end="url(#arrow)" /><line x1="1896.0" y1="73.0" x2="1964.0" y2="377.0" stroke="#7a8ca3" stroke-width="1.2" marker-end="url(#arrow)" /><rect x="2344" y="356" width="122" height="42" rx="9" ry="9" fill="#ffe8cc" stroke="#3d4f65" stroke-width="1.1" /><text x="2352" y="373" font-family="Segoe UI, Arial, sans-serif" font-size="11" fill="#10243f">s7</text><text x="2352" y="388" font-family="Segoe UI, Arial, sans-serif" font-size="10" fill="#4b647f">OR | 0</text><rect x="2344" y="280" width="122" height="42" rx="9" ry="9" fill="#ffe8cc" stroke="#3d4f65" stroke-width="1.1" /><text x="2352" y="297" font-family="Segoe UI, Arial, sans-serif" font-size="11" fill="#10243f">s6</text><text x="2352" y="312" font-family="Segoe UI, Arial, sans-serif" font-size="10" fill="#4b647f">OR | 1</text><rect x="2344" y="204" width="122" height="42" rx="9" ry="9" fill="#ffe8cc" stroke="#3d4f65" stroke-width="1.1" /><text x="2352" y="221" font-family="Segoe UI, Arial, sans-serif" font-size="11" fill="#10243f">s5</text><text x="2352" y="236" font-family="Segoe UI, Arial, sans-serif" font-size="10" fill="#4b647f">OR | 0</text><rect x="2344" y="128" width="122" height="42" rx="9" ry="9" fill="#ffe8cc" stroke="#3d4f65" stroke-width="1.1" /><text x="2352" y="145" font-family="Segoe UI, Arial, sans-serif" font-size="11" fill="#10243f">s4</text><text x="2352" y="160" font-family="Segoe UI, Arial, sans-serif" font-size="10" fill="#4b647f">OR | 1</text><rect x="1584" y="52" width="122" height="42" rx="9" ry="9" fill="#ffe8cc" stroke="#3d4f65" stroke-width="1.1" /><text x="1592" y="69" font-family="Segoe UI, Arial, sans-serif" font-size="11" fill="#10243f">s3</text><text x="1592" y="84" font-family="Segoe UI, Arial, sans-serif" font-size="10" fill="#4b647f">XOR | 0</text><rect x="1204" y="52" width="122" height="42" rx="9" ry="9" fill="#ffe8cc" stroke="#3d4f65" stroke-width="1.1" /><text x="1212" y="69" font-family="Segoe UI, Arial, sans-serif" font-size="11" fill="#10243f">s2</text><text x="1212" y="84" font-family="Segoe UI, Arial, sans-serif" font-size="10" fill="#4b647f">XOR | 1</text><rect x="824" y="52" width="122" height="42" rx="9" ry="9" fill="#ffe8cc" stroke="#3d4f65" stroke-width="1.1" /><text x="832" y="69" font-family="Segoe UI, Arial, sans-serif" font-size="11" fill="#10243f">s1</text><text x="832" y="84" font-family="Segoe UI, Arial, sans-serif" font-size="10" fill="#4b647f">XOR | 0</text><rect x="444" y="52" width="122" height="42" rx="9" ry="9" fill="#ffe8cc" stroke="#3d4f65" stroke-width="1.1" /><text x="452" y="69" font-family="Segoe UI, Arial, sans-serif" font-size="11" fill="#10243f">s0</text><text x="452" y="84" font-family="Segoe UI, Arial, sans-serif" font-size="10" fill="#4b647f">XOR | 1</text><rect x="2344" y="52" width="122" height="42" rx="9" ry="9" fill="#ffe8cc" stroke="#3d4f65" stroke-width="1.1" /><text x="2352" y="69" font-family="Segoe UI, Arial, sans-serif" font-size="11" fill="#10243f">cout</text><text x="2352" y="84" font-family="Segoe UI, Arial, sans-serif" font-size="10" fill="#4b647f">OR | 1</text><rect x="64" y="584" width="122" height="42" rx="9" ry="9" fill="#d8f3dc" stroke="#3d4f65" stroke-width="1.1" /><text x="72" y="601" font-family="Segoe UI, Arial, sans-serif" font-size="11" fill="#10243f">a7</text><text x="72" y="616" font-family="Segoe UI, Arial, sans-serif" font-size="10" fill="#4b647f">PI | 1</text><rect x="64" y="508" width="122" height="42" rx="9" ry="9" fill="#d8f3dc" stroke="#3d4f65" stroke-width="1.1" /><text x="72" y="525" font-family="Segoe UI, Arial, sans-serif" font-size="11" fill="#10243f">a6</text><text x="72" y="540" font-family="Segoe UI, Arial, sans-serif" font-size="10" fill="#4b647f">PI | 0</text><rect x="64" y="432" width="122" height="42" rx="9" ry="9" fill="#d8f3dc" stroke="#3d4f65" stroke-width="1.1" /><text x="72" y="449" font-family="Segoe UI, Arial, sans-serif" font-size="11" fill="#10243f">a5</text><text x="72" y="464" font-family="Segoe UI, Arial, sans-serif" font-size="10" fill="#4b647f">PI | 1</text><rect x="64" y="356" width="122" height="42" rx="9" ry="9" fill="#d8f3dc" stroke="#3d4f65" stroke-width="1.1" /><text x="72" y="373" font-family="Segoe UI, Arial, sans-serif" font-size="11" fill="#10243f">a4</text><text x="72" y="388" font-family="Segoe UI, Arial, sans-serif" font-size="10" fill="#4b647f">PI | 0</text><rect x="64" y="280" width="122" height="42" rx="9" ry="9" fill="#d8f3dc" stroke="#3d4f65" stroke-width="1.1" /><text x="72" y="297" font-family="Segoe UI, Arial, sans-serif" font-size="11" fill="#10243f">a3</text><text x="72" y="312" font-family="Segoe UI, Arial, sans-serif" font-size="10" fill="#4b647f">PI | 1</text><rect x="64" y="204" width="122" height="42" rx="9" ry="9" fill="#d8f3dc" stroke="#3d4f65" stroke-width="1.1" /><text x="72" y="221" font-family="Segoe UI, Arial, sans-serif" font-size="11" fill="#10243f">a2</text><text x="72" y="236" font-family="Segoe UI, Arial, sans-serif" font-size="10" fill="#4b647f">PI | 0</text><rect x="64" y="128" width="122" height="42" rx="9" ry="9" fill="#d8f3dc" stroke="#3d4f65" stroke-width="1.1" /><text x="72" y="145" font-family="Segoe UI, Arial, sans-serif" font-size="11" fill="#10243f">a1</text><text x="72" y="160" font-family="Segoe UI, Arial, sans-serif" font-size="10" fill="#4b647f">PI | 1</text><rect x="64" y="52" width="122" height="42" rx="9" ry="9" fill="#d8f3dc" stroke="#3d4f65" stroke-width="1.1" /><text x="72" y="69" font-family="Segoe UI, Arial, sans-serif" font-size="11" fill="#10243f">a0</text><text x="72" y="84" font-family="Segoe UI, Arial, sans-serif" font-size="10" fill="#4b647f">PI | 0</text><rect x="64" y="1192" width="122" height="42" rx="9" ry="9" fill="#d8f3dc" stroke="#3d4f65" stroke-width="1.1" /><text x="72" y="1209" font-family="Segoe UI, Arial, sans-serif" font-size="11" fill="#10243f">b7</text><text x="72" y="1224" font-family="Segoe UI, Arial, sans-serif" font-size="10" fill="#4b647f">PI | 1</text><rect x="64" y="1116" width="122" height="42" rx="9" ry="9" fill="#d8f3dc" stroke="#3d4f65" stroke-width="1.1" /><text x="72" y="1133" font-family="Segoe UI, Arial, sans-serif" font-size="11" fill="#10243f">b6</text><text x="72" y="1148" font-family="Segoe UI, Arial, sans-serif" font-size="10" fill="#4b647f">PI | 0</text><rect x="64" y="1040" width="122" height="42" rx="9" ry="9" fill="#d8f3dc" stroke="#3d4f65" stroke-width="1.1" /><text x="72" y="1057" font-family="Segoe UI, Arial, sans-serif" font-size="11" fill="#10243f">b5</text><text x="72" y="1072" font-family="Segoe UI, Arial, sans-serif" font-size="10" fill="#4b647f">PI | 1</text><rect x="64" y="964" width="122" height="42" rx="9" ry="9" fill="#d8f3dc" stroke="#3d4f65" stroke-width="1.1" /><text x="72" y="981" font-family="Segoe UI, Arial, sans-serif" font-size="11" fill="#10243f">b4</text><text x="72" y="996" font-family="Segoe UI, Arial, sans-serif" font-size="10" fill="#4b647f">PI | 0</text><rect x="64" y="888" width="122" height="42" rx="9" ry="9" fill="#d8f3dc" stroke="#3d4f65" stroke-width="1.1" /><text x="72" y="905" font-family="Segoe UI, Arial, sans-serif" font-size="11" fill="#10243f">b3</text><text x="72" y="920" font-family="Segoe UI, Arial, sans-serif" font-size="10" fill="#4b647f">PI | 1</text><rect x="64" y="812" width="122" height="42" rx="9" ry="9" fill="#d8f3dc" stroke="#3d4f65" stroke-width="1.1" /><text x="72" y="829" font-family="Segoe UI, Arial, sans-serif" font-size="11" fill="#10243f">b2</text><text x="72" y="844" font-family="Segoe UI, Arial, sans-serif" font-size="10" fill="#4b647f">PI | 0</text><rect x="64" y="736" width="122" height="42" rx="9" ry="9" fill="#d8f3dc" stroke="#3d4f65" stroke-width="1.1" /><text x="72" y="753" font-family="Segoe UI, Arial, sans-serif" font-size="11" fill="#10243f">b1</text><text x="72" y="768" font-family="Segoe UI, Arial, sans-serif" font-size="10" fill="#4b647f">PI | 1</text><rect x="64" y="660" width="122" height="42" rx="9" ry="9" fill="#d8f3dc" stroke="#3d4f65" stroke-width="1.1" /><text x="72" y="677" font-family="Segoe UI, Arial, sans-serif" font-size="11" fill="#10243f">b0</text><text x="72" y="692" font-family="Segoe UI, Arial, sans-serif" font-size="10" fill="#4b647f">PI | 0</text><rect x="64" y="1268" width="122" height="42" rx="9" ry="9" fill="#d8f3dc" stroke="#3d4f65" stroke-width="1.1" /><text x="72" y="1285" font-family="Segoe UI, Arial, sans-serif" font-size="11" fill="#10243f">cin</text><text x="72" y="1300" font-family="Segoe UI, Arial, sans-serif" font-size="10" fill="#4b647f">PI | 1</text><rect x="254" y="280" width="122" height="42" rx="9" ry="9" fill="#e7f5ff" stroke="#3d4f65" stroke-width="1.1" /><text x="262" y="297" font-family="Segoe UI, Arial, sans-serif" font-size="11" fill="#10243f">w0_1</text><text x="262" y="312" font-family="Segoe UI, Arial, sans-serif" font-size="10" fill="#4b647f">XOR | 0</text><rect x="254" y="356" width="122" height="42" rx="9" ry="9" fill="#e7f5ff" stroke="#3d4f65" stroke-width="1.1" /><text x="262" y="373" font-family="Segoe UI, Arial, sans-serif" font-size="11" fill="#10243f">w0_2</text><text x="262" y="388" font-family="Segoe UI, Arial, sans-serif" font-size="10" fill="#4b647f">AND | 0</text><rect x="444" y="356" width="122" height="42" rx="9" ry="9" fill="#e7f5ff" stroke="#3d4f65" stroke-width="1.1" /><text x="452" y="373" font-family="Segoe UI, Arial, sans-serif" font-size="11" fill="#10243f">w0_3</text><text x="452" y="388" font-family="Segoe UI, Arial, sans-serif" font-size="10" fill="#4b647f">AND | 0</text><rect x="634" y="52" width="122" height="42" rx="9" ry="9" fill="#e7f5ff" stroke="#3d4f65" stroke-width="1.1" /><text x="642" y="69" font-family="Segoe UI, Arial, sans-serif" font-size="11" fill="#10243f">c0</text><text x="642" y="84" font-family="Segoe UI, Arial, sans-serif" font-size="10" fill="#4b647f">OR | 0</text><rect x="254" y="432" width="122" height="42" rx="9" ry="9" fill="#e7f5ff" stroke="#3d4f65" stroke-width="1.1" /><text x="262" y="449" font-family="Segoe UI, Arial, sans-serif" font-size="11" fill="#10243f">w1_1</text><text x="262" y="464" font-family="Segoe UI, Arial, sans-serif" font-size="10" fill="#4b647f">XOR | 0</text><rect x="254" y="508" width="122" height="42" rx="9" ry="9" fill="#e7f5ff" stroke="#3d4f65" stroke-width="1.1" /><text x="262" y="525" font-family="Segoe UI, Arial, sans-serif" font-size="11" fill="#10243f">w1_2</text><text x="262" y="540" font-family="Segoe UI, Arial, sans-serif" font-size="10" fill="#4b647f">AND | 1</text><rect x="824" y="280" width="122" height="42" rx="9" ry="9" fill="#e7f5ff" stroke="#3d4f65" stroke-width="1.1" /><text x="832" y="297" font-family="Segoe UI, Arial, sans-serif" font-size="11" fill="#10243f">w1_3</text><text x="832" y="312" font-family="Segoe UI, Arial, sans-serif" font-size="10" fill="#4b647f">AND | 0</text><rect x="1014" y="52" width="122" height="42" rx="9" ry="9" fill="#e7f5ff" stroke="#3d4f65" stroke-width="1.1" /><text x="1022" y="69" font-family="Segoe UI, Arial, sans-serif" font-size="11" fill="#10243f">c1</text><text x="1022" y="84" font-family="Segoe UI, Arial, sans-serif" font-size="10" fill="#4b647f">OR | 1</text><rect x="254" y="584" width="122" height="42" rx="9" ry="9" fill="#e7f5ff" stroke="#3d4f65" stroke-width="1.1" /><text x="262" y="601" font-family="Segoe UI, Arial, sans-serif" font-size="11" fill="#10243f">w2_1</text><text x="262" y="616" font-family="Segoe UI, Arial, sans-serif" font-size="10" fill="#4b647f">XOR | 0</text><rect x="254" y="660" width="122" height="42" rx="9" ry="9" fill="#e7f5ff" stroke="#3d4f65" stroke-width="1.1" /><text x="262" y="677" font-family="Segoe UI, Arial, sans-serif" font-size="11" fill="#10243f">w2_2</text><text x="262" y="692" font-family="Segoe UI, Arial, sans-serif" font-size="10" fill="#4b647f">AND | 0</text><rect x="1204" y="280" width="122" height="42" rx="9" ry="9" fill="#e7f5ff" stroke="#3d4f65" stroke-width="1.1" /><text x="1212" y="297" font-family="Segoe UI, Arial, sans-serif" font-size="11" fill="#10243f">w2_3</text><text x="1212" y="312" font-family="Segoe UI, Arial, sans-serif" font-size="10" fill="#4b647f">AND | 0</text><rect x="1394" y="52" width="122" height="42" rx="9" ry="9" fill="#e7f5ff" stroke="#3d4f65" stroke-width="1.1" /><text x="1402" y="69" font-family="Segoe UI, Arial, sans-serif" font-size="11" fill="#10243f">c2</text><text x="1402" y="84" font-family="Segoe UI, Arial, sans-serif" font-size="10" fill="#4b647f">OR | 0</text><rect x="254" y="736" width="122" height="42" rx="9" ry="9" fill="#e7f5ff" stroke="#3d4f65" stroke-width="1.1" /><text x="262" y="753" font-family="Segoe UI, Arial, sans-serif" font-size="11" fill="#10243f">w3_1</text><text x="262" y="768" font-family="Segoe UI, Arial, sans-serif" font-size="10" fill="#4b647f">XOR | 0</text><rect x="254" y="812" width="122" height="42" rx="9" ry="9" fill="#e7f5ff" stroke="#3d4f65" stroke-width="1.1" /><text x="262" y="829" font-family="Segoe UI, Arial, sans-serif" font-size="11" fill="#10243f">w3_2</text><text x="262" y="844" font-family="Segoe UI, Arial, sans-serif" font-size="10" fill="#4b647f">AND | 1</text><rect x="1584" y="128" width="122" height="42" rx="9" ry="9" fill="#e7f5ff" stroke="#3d4f65" stroke-width="1.1" /><text x="1592" y="145" font-family="Segoe UI, Arial, sans-serif" font-size="11" fill="#10243f">w3_3</text><text x="1592" y="160" font-family="Segoe UI, Arial, sans-serif" font-size="10" fill="#4b647f">AND | 0</text><rect x="1774" y="52" width="122" height="42" rx="9" ry="9" fill="#e7f5ff" stroke="#3d4f65" stroke-width="1.1" /><text x="1782" y="69" font-family="Segoe UI, Arial, sans-serif" font-size="11" fill="#10243f">c3</text><text x="1782" y="84" font-family="Segoe UI, Arial, sans-serif" font-size="10" fill="#4b647f">OR | 1</text><rect x="254" y="204" width="122" height="42" rx="9" ry="9" fill="#e7f5ff" stroke="#3d4f65" stroke-width="1.1" /><text x="262" y="221" font-family="Segoe UI, Arial, sans-serif" font-size="11" fill="#10243f">s4_0</text><text x="262" y="236" font-family="Segoe UI, Arial, sans-serif" font-size="10" fill="#4b647f">XOR | 0</text><rect x="254" y="52" width="122" height="42" rx="9" ry="9" fill="#e7f5ff" stroke="#3d4f65" stroke-width="1.1" /><text x="262" y="69" font-family="Segoe UI, Arial, sans-serif" font-size="11" fill="#10243f">c4_0</text><text x="262" y="84" font-family="Segoe UI, Arial, sans-serif" font-size="10" fill="#4b647f">AND | 0</text><rect x="254" y="964" width="122" height="42" rx="9" ry="9" fill="#e7f5ff" stroke="#3d4f65" stroke-width="1.1" /><text x="262" y="981" font-family="Segoe UI, Arial, sans-serif" font-size="11" fill="#10243f">w5_01</text><text x="262" y="996" font-family="Segoe UI, Arial, sans-serif" font-size="10" fill="#4b647f">XOR | 0</text><rect x="444" y="204" width="122" height="42" rx="9" ry="9" fill="#e7f5ff" stroke="#3d4f65" stroke-width="1.1" /><text x="452" y="221" font-family="Segoe UI, Arial, sans-serif" font-size="11" fill="#10243f">s5_0</text><text x="452" y="236" font-family="Segoe UI, Arial, sans-serif" font-size="10" fill="#4b647f">XOR | 0</text><rect x="254" y="1040" width="122" height="42" rx="9" ry="9" fill="#e7f5ff" stroke="#3d4f65" stroke-width="1.1" /><text x="262" y="1057" font-family="Segoe UI, Arial, sans-serif" font-size="11" fill="#10243f">w5_02</text><text x="262" y="1072" font-family="Segoe UI, Arial, sans-serif" font-size="10" fill="#4b647f">AND | 1</text><rect x="444" y="432" width="122" height="42" rx="9" ry="9" fill="#e7f5ff" stroke="#3d4f65" stroke-width="1.1" /><text x="452" y="449" font-family="Segoe UI, Arial, sans-serif" font-size="11" fill="#10243f">w5_03</text><text x="452" y="464" font-family="Segoe UI, Arial, sans-serif" font-size="10" fill="#4b647f">AND | 0</text><rect x="634" y="128" width="122" height="42" rx="9" ry="9" fill="#e7f5ff" stroke="#3d4f65" stroke-width="1.1" /><text x="642" y="145" font-family="Segoe UI, Arial, sans-serif" font-size="11" fill="#10243f">c5_0</text><text x="642" y="160" font-family="Segoe UI, Arial, sans-serif" font-size="10" fill="#4b647f">OR | 1</text><rect x="254" y="1268" width="122" height="42" rx="9" ry="9" fill="#e7f5ff" stroke="#3d4f65" stroke-width="1.1" /><text x="262" y="1285" font-family="Segoe UI, Arial, sans-serif" font-size="11" fill="#10243f">w6_01</text><text x="262" y="1300" font-family="Segoe UI, Arial, sans-serif" font-size="10" fill="#4b647f">XOR | 0</text><rect x="824" y="128" width="122" height="42" rx="9" ry="9" fill="#e7f5ff" stroke="#3d4f65" stroke-width="1.1" /><text x="832" y="145" font-family="Segoe UI, Arial, sans-serif" font-size="11" fill="#10243f">s6_0</text><text x="832" y="160" font-family="Segoe UI, Arial, sans-serif" font-size="10" fill="#4b647f">XOR | 1</text><rect x="254" y="1344" width="122" height="42" rx="9" ry="9" fill="#e7f5ff" stroke="#3d4f65" stroke-width="1.1" /><text x="262" y="1361" font-family="Segoe UI, Arial, sans-serif" font-size="11" fill="#10243f">w6_02</text><text x="262" y="1376" font-family="Segoe UI, Arial, sans-serif" font-size="10" fill="#4b647f">AND | 0</text><rect x="824" y="356" width="122" height="42" rx="9" ry="9" fill="#e7f5ff" stroke="#3d4f65" stroke-width="1.1" /><text x="832" y="373" font-family="Segoe UI, Arial, sans-serif" font-size="11" fill="#10243f">w6_03</text><text x="832" y="388" font-family="Segoe UI, Arial, sans-serif" font-size="10" fill="#4b647f">AND | 0</text><rect x="1014" y="128" width="122" height="42" rx="9" ry="9" fill="#e7f5ff" stroke="#3d4f65" stroke-width="1.1" /><text x="1022" y="145" font-family="Segoe UI, Arial, sans-serif" font-size="11" fill="#10243f">c6_0</text><text x="1022" y="160" font-family="Segoe UI, Arial, sans-serif" font-size="10" fill="#4b647f">OR | 0</text><rect x="254" y="1572" width="122" height="42" rx="9" ry="9" fill="#e7f5ff" stroke="#3d4f65" stroke-width="1.1" /><text x="262" y="1589" font-family="Segoe UI, Arial, sans-serif" font-size="11" fill="#10243f">w7_01</text><text x="262" y="1604" font-family="Segoe UI, Arial, sans-serif" font-size="10" fill="#4b647f">XOR | 0</text><rect x="1204" y="128" width="122" height="42" rx="9" ry="9" fill="#e7f5ff" stroke="#3d4f65" stroke-width="1.1" /><text x="1212" y="145" font-family="Segoe UI, Arial, sans-serif" font-size="11" fill="#10243f">s7_0</text><text x="1212" y="160" font-family="Segoe UI, Arial, sans-serif" font-size="10" fill="#4b647f">XOR | 0</text><rect x="254" y="1648" width="122" height="42" rx="9" ry="9" fill="#e7f5ff" stroke="#3d4f65" stroke-width="1.1" /><text x="262" y="1665" font-family="Segoe UI, Arial, sans-serif" font-size="11" fill="#10243f">w7_02</text><text x="262" y="1680" font-family="Segoe UI, Arial, sans-serif" font-size="10" fill="#4b647f">AND | 1</text><rect x="1204" y="356" width="122" height="42" rx="9" ry="9" fill="#e7f5ff" stroke="#3d4f65" stroke-width="1.1" /><text x="1212" y="373" font-family="Segoe UI, Arial, sans-serif" font-size="11" fill="#10243f">w7_03</text><text x="1212" y="388" font-family="Segoe UI, Arial, sans-serif" font-size="10" fill="#4b647f">AND | 0</text><rect x="1394" y="128" width="122" height="42" rx="9" ry="9" fill="#e7f5ff" stroke="#3d4f65" stroke-width="1.1" /><text x="1402" y="145" font-family="Segoe UI, Arial, sans-serif" font-size="11" fill="#10243f">cout_0</text><text x="1402" y="160" font-family="Segoe UI, Arial, sans-serif" font-size="10" fill="#4b647f">OR | 1</text><rect x="254" y="888" width="122" height="42" rx="9" ry="9" fill="#e7f5ff" stroke="#3d4f65" stroke-width="1.1" /><text x="262" y="905" font-family="Segoe UI, Arial, sans-serif" font-size="11" fill="#10243f">w4_1</text><text x="262" y="920" font-family="Segoe UI, Arial, sans-serif" font-size="10" fill="#4b647f">XOR | 0</text><rect x="444" y="128" width="122" height="42" rx="9" ry="9" fill="#e7f5ff" stroke="#3d4f65" stroke-width="1.1" /><text x="452" y="145" font-family="Segoe UI, Arial, sans-serif" font-size="11" fill="#10243f">s4_1</text><text x="452" y="160" font-family="Segoe UI, Arial, sans-serif" font-size="10" fill="#4b647f">NOT | 1</text><rect x="254" y="128" width="122" height="42" rx="9" ry="9" fill="#e7f5ff" stroke="#3d4f65" stroke-width="1.1" /><text x="262" y="145" font-family="Segoe UI, Arial, sans-serif" font-size="11" fill="#10243f">c4_1</text><text x="262" y="160" font-family="Segoe UI, Arial, sans-serif" font-size="10" fill="#4b647f">OR | 0</text><rect x="254" y="1116" width="122" height="42" rx="9" ry="9" fill="#e7f5ff" stroke="#3d4f65" stroke-width="1.1" /><text x="262" y="1133" font-family="Segoe UI, Arial, sans-serif" font-size="11" fill="#10243f">w5_11</text><text x="262" y="1148" font-family="Segoe UI, Arial, sans-serif" font-size="10" fill="#4b647f">XOR | 0</text><rect x="444" y="280" width="122" height="42" rx="9" ry="9" fill="#e7f5ff" stroke="#3d4f65" stroke-width="1.1" /><text x="452" y="297" font-family="Segoe UI, Arial, sans-serif" font-size="11" fill="#10243f">s5_1</text><text x="452" y="312" font-family="Segoe UI, Arial, sans-serif" font-size="10" fill="#4b647f">XOR | 0</text><rect x="254" y="1192" width="122" height="42" rx="9" ry="9" fill="#e7f5ff" stroke="#3d4f65" stroke-width="1.1" /><text x="262" y="1209" font-family="Segoe UI, Arial, sans-serif" font-size="11" fill="#10243f">w5_12</text><text x="262" y="1224" font-family="Segoe UI, Arial, sans-serif" font-size="10" fill="#4b647f">AND | 1</text><rect x="444" y="508" width="122" height="42" rx="9" ry="9" fill="#e7f5ff" stroke="#3d4f65" stroke-width="1.1" /><text x="452" y="525" font-family="Segoe UI, Arial, sans-serif" font-size="11" fill="#10243f">w5_13</text><text x="452" y="540" font-family="Segoe UI, Arial, sans-serif" font-size="10" fill="#4b647f">AND | 0</text><rect x="634" y="204" width="122" height="42" rx="9" ry="9" fill="#e7f5ff" stroke="#3d4f65" stroke-width="1.1" /><text x="642" y="221" font-family="Segoe UI, Arial, sans-serif" font-size="11" fill="#10243f">c5_1</text><text x="642" y="236" font-family="Segoe UI, Arial, sans-serif" font-size="10" fill="#4b647f">OR | 1</text><rect x="254" y="1420" width="122" height="42" rx="9" ry="9" fill="#e7f5ff" stroke="#3d4f65" stroke-width="1.1" /><text x="262" y="1437" font-family="Segoe UI, Arial, sans-serif" font-size="11" fill="#10243f">w6_11</text><text x="262" y="1452" font-family="Segoe UI, Arial, sans-serif" font-size="10" fill="#4b647f">XOR | 0</text><rect x="824" y="204" width="122" height="42" rx="9" ry="9" fill="#e7f5ff" stroke="#3d4f65" stroke-width="1.1" /><text x="832" y="221" font-family="Segoe UI, Arial, sans-serif" font-size="11" fill="#10243f">s6_1</text><text x="832" y="236" font-family="Segoe UI, Arial, sans-serif" font-size="10" fill="#4b647f">XOR | 1</text><rect x="254" y="1496" width="122" height="42" rx="9" ry="9" fill="#e7f5ff" stroke="#3d4f65" stroke-width="1.1" /><text x="262" y="1513" font-family="Segoe UI, Arial, sans-serif" font-size="11" fill="#10243f">w6_12</text><text x="262" y="1528" font-family="Segoe UI, Arial, sans-serif" font-size="10" fill="#4b647f">AND | 0</text><rect x="824" y="432" width="122" height="42" rx="9" ry="9" fill="#e7f5ff" stroke="#3d4f65" stroke-width="1.1" /><text x="832" y="449" font-family="Segoe UI, Arial, sans-serif" font-size="11" fill="#10243f">w6_13</text><text x="832" y="464" font-family="Segoe UI, Arial, sans-serif" font-size="10" fill="#4b647f">AND | 0</text><rect x="1014" y="204" width="122" height="42" rx="9" ry="9" fill="#e7f5ff" stroke="#3d4f65" stroke-width="1.1" /><text x="1022" y="221" font-family="Segoe UI, Arial, sans-serif" font-size="11" fill="#10243f">c6_1</text><text x="1022" y="236" font-family="Segoe UI, Arial, sans-serif" font-size="10" fill="#4b647f">OR | 0</text><rect x="254" y="1724" width="122" height="42" rx="9" ry="9" fill="#e7f5ff" stroke="#3d4f65" stroke-width="1.1" /><text x="262" y="1741" font-family="Segoe UI, Arial, sans-serif" font-size="11" fill="#10243f">w7_11</text><text x="262" y="1756" font-family="Segoe UI, Arial, sans-serif" font-size="10" fill="#4b647f">XOR | 0</text><rect x="1204" y="204" width="122" height="42" rx="9" ry="9" fill="#e7f5ff" stroke="#3d4f65" stroke-width="1.1" /><text x="1212" y="221" font-family="Segoe UI, Arial, sans-serif" font-size="11" fill="#10243f">s7_1</text><text x="1212" y="236" font-family="Segoe UI, Arial, sans-serif" font-size="10" fill="#4b647f">XOR | 0</text><rect x="254" y="1800" width="122" height="42" rx="9" ry="9" fill="#e7f5ff" stroke="#3d4f65" stroke-width="1.1" /><text x="262" y="1817" font-family="Segoe UI, Arial, sans-serif" font-size="11" fill="#10243f">w7_12</text><text x="262" y="1832" font-family="Segoe UI, Arial, sans-serif" font-size="10" fill="#4b647f">AND | 1</text><rect x="1204" y="432" width="122" height="42" rx="9" ry="9" fill="#e7f5ff" stroke="#3d4f65" stroke-width="1.1" /><text x="1212" y="449" font-family="Segoe UI, Arial, sans-serif" font-size="11" fill="#10243f">w7_13</text><text x="1212" y="464" font-family="Segoe UI, Arial, sans-serif" font-size="10" fill="#4b647f">AND | 0</text><rect x="1394" y="204" width="122" height="42" rx="9" ry="9" fill="#e7f5ff" stroke="#3d4f65" stroke-width="1.1" /><text x="1402" y="221" font-family="Segoe UI, Arial, sans-serif" font-size="11" fill="#10243f">cout_1</text><text x="1402" y="236" font-family="Segoe UI, Arial, sans-serif" font-size="10" fill="#4b647f">OR | 1</text><rect x="1964" y="432" width="122" height="42" rx="9" ry="9" fill="#e7f5ff" stroke="#3d4f65" stroke-width="1.1" /><text x="1972" y="449" font-family="Segoe UI, Arial, sans-serif" font-size="11" fill="#10243f">nc3</text><text x="1972" y="464" font-family="Segoe UI, Arial, sans-serif" font-size="10" fill="#4b647f">NOT | 0</text><rect x="2154" y="52" width="122" height="42" rx="9" ry="9" fill="#e7f5ff" stroke="#3d4f65" stroke-width="1.1" /><text x="2162" y="69" font-family="Segoe UI, Arial, sans-serif" font-size="11" fill="#10243f">g4_0</text><text x="2162" y="84" font-family="Segoe UI, Arial, sans-serif" font-size="10" fill="#4b647f">AND | 0</text><rect x="1964" y="52" width="122" height="42" rx="9" ry="9" fill="#e7f5ff" stroke="#3d4f65" stroke-width="1.1" /><text x="1972" y="69" font-family="Segoe UI, Arial, sans-serif" font-size="11" fill="#10243f">g4_1</text><text x="1972" y="84" font-family="Segoe UI, Arial, sans-serif" font-size="10" fill="#4b647f">AND | 1</text><rect x="2154" y="128" width="122" height="42" rx="9" ry="9" fill="#e7f5ff" stroke="#3d4f65" stroke-width="1.1" /><text x="2162" y="145" font-family="Segoe UI, Arial, sans-serif" font-size="11" fill="#10243f">g5_0</text><text x="2162" y="160" font-family="Segoe UI, Arial, sans-serif" font-size="10" fill="#4b647f">AND | 0</text><rect x="1964" y="128" width="122" height="42" rx="9" ry="9" fill="#e7f5ff" stroke="#3d4f65" stroke-width="1.1" /><text x="1972" y="145" font-family="Segoe UI, Arial, sans-serif" font-size="11" fill="#10243f">g5_1</text><text x="1972" y="160" font-family="Segoe UI, Arial, sans-serif" font-size="10" fill="#4b647f">AND | 0</text><rect x="2154" y="204" width="122" height="42" rx="9" ry="9" fill="#e7f5ff" stroke="#3d4f65" stroke-width="1.1" /><text x="2162" y="221" font-family="Segoe UI, Arial, sans-serif" font-size="11" fill="#10243f">g6_0</text><text x="2162" y="236" font-family="Segoe UI, Arial, sans-serif" font-size="10" fill="#4b647f">AND | 0</text><rect x="1964" y="204" width="122" height="42" rx="9" ry="9" fill="#e7f5ff" stroke="#3d4f65" stroke-width="1.1" /><text x="1972" y="221" font-family="Segoe UI, Arial, sans-serif" font-size="11" fill="#10243f">g6_1</text><text x="1972" y="236" font-family="Segoe UI, Arial, sans-serif" font-size="10" fill="#4b647f">AND | 1</text><rect x="2154" y="280" width="122" height="42" rx="9" ry="9" fill="#e7f5ff" stroke="#3d4f65" stroke-width="1.1" /><text x="2162" y="297" font-family="Segoe UI, Arial, sans-serif" font-size="11" fill="#10243f">g7_0</text><text x="2162" y="312" font-family="Segoe UI, Arial, sans-serif" font-size="10" fill="#4b647f">AND | 0</text><rect x="1964" y="280" width="122" height="42" rx="9" ry="9" fill="#e7f5ff" stroke="#3d4f65" stroke-width="1.1" /><text x="1972" y="297" font-family="Segoe UI, Arial, sans-serif" font-size="11" fill="#10243f">g7_1</text><text x="1972" y="312" font-family="Segoe UI, Arial, sans-serif" font-size="10" fill="#4b647f">AND | 0</text><rect x="2154" y="356" width="122" height="42" rx="9" ry="9" fill="#e7f5ff" stroke="#3d4f65" stroke-width="1.1" /><text x="2162" y="373" font-family="Segoe UI, Arial, sans-serif" font-size="11" fill="#10243f">gc_0</text><text x="2162" y="388" font-family="Segoe UI, Arial, sans-serif" font-size="10" fill="#4b647f">AND | 0</text><rect x="1964" y="356" width="122" height="42" rx="9" ry="9" fill="#e7f5ff" stroke="#3d4f65" stroke-width="1.1" /><text x="1972" y="373" font-family="Segoe UI, Arial, sans-serif" font-size="11" fill="#10243f">gc_1</text><text x="1972" y="388" font-family="Segoe UI, Arial, sans-serif" font-size="10" fill="#4b647f">AND | 1</text></svg>