<svg xmlns="http://www.w3.org/2000/svg" width="1770" height="1438" viewBox="0 0 1770 1438"><defs><marker id="arrow" viewBox="0 0 10 10" refX="8" refY="5" markerWidth="6" markerHeight="6" orient="auto-start-reverse"><path d="M 0 0 L 10 5 L 0 10 z" fill="#7a8ca3" /></marker></defs><rect x="0" y="0" width="100%" height="100%" fill="#fbfcff" /><line x1="1326.0" y1="909.0" x2="1394.0" y2="605.0" stroke="#7a8ca3" stroke-width="1.2" marker-end="url(#arrow)" /><line x1="376.0" y1="1061.0" x2="1394.0" y2="605.0" stroke="#7a8ca3" stroke-width="1.2" marker-end="url(#arrow)" /><line x1="1326.0" y1="833.0" x2="1394.0" y2="529.0" stroke="#7a8ca3" stroke-width="1.2" marker-end="url(#arrow)" /><line x1="376.0" y1="985.0" x2="1394.0" y2="529.0" stroke="#7a8ca3" stroke-width="1.2" marker-end="url(#arrow)" /><line x1="1326.0" y1="757.0" x2="1394.0" y2="453.0" stroke="#7a8ca3" stroke-width="1.2" marker-end="url(#arrow)" /><line x1="376.0" y1="909.0" x2="1394.0" y2="453.0" stroke="#7a8ca3" stroke-width="1.2" marker-end="url(#arrow)" /><line x1="1326.0" y1="681.0" x2="1394.0" y2="377.0" stroke="#7a8ca3" stroke-width="1.2" marker-end="url(#arrow)" /><line x1="376.0" y1="833.0" x2="1394.0" y2="377.0" stroke="#7a8ca3" stroke-width="1.2" marker-end="url(#arrow)" /><line x1="1326.0" y1="529.0" x2="1394.0" y2="301.0" stroke="#7a8ca3" stroke-width="1.2" marker-end="url(#arrow)" /><line x1="1326.0" y1="605.0" x2="1394.0" y2="301.0" stroke="#7a8ca3" stroke-width="1.2" marker-end="url(#arrow)" /><line x1="1326.0" y1="377.0" x2="1394.0" y2="225.0" stroke="#7a8ca3" stroke-width="1.2" marker-end="url(#arrow)" /><line x1="1326.0" y1="453.0" x2="1394.0" y2="225.0" stroke="#7a8ca3" stroke-width="1.2" marker-end="url(#arrow)" /><line x1="1326.0" y1="225.0" x2="1394.0" y2="149.0" stroke="#7a8ca3" stroke-width="1.2" marker-end="url(#arrow)" /><line x1="1326.0" y1="301.0" x2="1394.0" y2="149.0" stroke="#7a8ca3" stroke-width="1.2" marker-end="url(#arrow)" /><line x1="1326.0" y1="73.0" x2="1394.0" y2="73.0" stroke="#7a8ca3" stroke-width="1.2" marker-end="url(#arrow)" /><line x1="1326.0" y1="149.0" x2="1394.0" y2="73.0" stroke="#7a8ca3" stroke-width="1.2" marker-end="url(#arrow)" /><line x1="186.0" y1="757.0" x2="254.0" y2="1137.0" stroke="#7a8ca3" stroke-width="1.2" marker-end="url(#arrow)" /><line x1="186.0" y1="833.0" x2="254.0" y2="1213.0" stroke="#7a8ca3" stroke-width="1.2" marker-end="url(#arrow)" /><line x1="186.0" y1="909.0" x2="254.0" y2="1289.0" stroke="#7a8ca3" stroke-width="1.2" marker-end="url(#arrow)" /><line x1="186.0" y1="681.0" x2="444.0" y2="605.0" stroke="#7a8ca3" stroke-width="1.2" marker-end="url(#arrow)" /><line x1="376.0" y1="1137.0" x2="444.0" y2="605.0" stroke="#7a8ca3" stroke-width="1.2" marker-end="url(#arrow)" /><line x1="186.0" y1="73.0" x2="254.0" y2="605.0" stroke="#7a8ca3" stroke-width="1.2" marker-end="url(#arrow)" /><line x1="186.0" y1="757.0" x2="254.0" y2="605.0" stroke="#7a8ca3" stroke-width="1.2" marker-end="url(#arrow)" /><line x1="566.0" y1="605.0" x2="634.0" y2="605.0" stroke="#7a8ca3" stroke-width="1.2" marker-end="url(#arrow)" /><line x1="376.0" y1="605.0" x2="634.0" y2="605.0" stroke="#7a8ca3" stroke-width="1.2" marker-end="url(#arrow)" /><line x1="186.0" y1="605.0" x2="444.0" y2="529.0" stroke="#7a8ca3" stroke-width="1.2" marker-end="url(#arrow)" /><line x1="376.0" y1="1137.0" x2="444.0" y2="529.0" stroke="#7a8ca3" stroke-width="1.2" marker-end="url(#arrow)" /><line x1="186.0" y1="681.0" x2="254.0" y2="529.0" stroke="#7a8ca3" stroke-width="1.2" marker-end="url(#arrow)" /><line x1="186.0" y1="757.0" x2="254.0" y2="529.0" stroke="#7a8ca3" stroke-width="1.2" marker-end="url(#arrow)" /><line x1="566.0" y1="529.0" x2="634.0" y2="529.0" stroke="#7a8ca3" stroke-width="1.2" marker-end="url(#arrow)" /><line x1="376.0" y1="529.0" x2="634.0" y2="529.0" stroke="#7a8ca3" stroke-width="1.2" marker-end="url(#arrow)" /><line x1="186.0" y1="529.0" x2="444.0" y2="453.0" stroke="#7a8ca3" stroke-width="1.2" marker-end="url(#arrow)" /><line x1="376.0" y1="1137.0" x2="444.0" y2="453.0" stroke="#7a8ca3" stroke-width="1.2" marker-end="url(#arrow)" /><line x1="186.0" y1="605.0" x2="254.0" y2="453.0" stroke="#7a8ca3" stroke-width="1.2" marker-end="url(#arrow)" /><line x1="186.0" y1="757.0" x2="254.0" y2="453.0" stroke="#7a8ca3" stroke-width="1.2" marker-end="url(#arrow)" /><line x1="566.0" y1="453.0" x2="634.0" y2="453.0" stroke="#7a8ca3" stroke-width="1.2" marker-end="url(#arrow)" /><line x1="376.0" y1="453.0" x2="634.0" y2="453.0" stroke="#7a8ca3" stroke-width="1.2" marker-end="url(#arrow)" /><line x1="186.0" y1="453.0" x2="444.0" y2="377.0" stroke="#7a8ca3" stroke-width="1.2" marker-end="url(#arrow)" /><line x1="376.0" y1="1137.0" x2="444.0" y2="377.0" stroke="#7a8ca3" stroke-width="1.2" marker-end="url(#arrow)" /><line x1="186.0" y1="529.0" x2="254.0" y2="377.0" stroke="#7a8ca3" stroke-width="1.2" marker-end="url(#arrow)" /><line x1="186.0" y1="757.0" x2="254.0" y2="377.0" stroke="#7a8ca3" stroke-width="1.2" marker-end="url(#arrow)" /><line x1="566.0" y1="377.0" x2="634.0" y2="377.0" stroke="#7a8ca3" stroke-width="1.2" marker-end="url(#arrow)" /><line x1="376.0" y1="377.0" x2="634.0" y2="377.0" stroke="#7a8ca3" stroke-width="1.2" marker-end="url(#arrow)" /><line x1="186.0" y1="377.0" x2="444.0" y2="301.0" stroke="#7a8ca3" stroke-width="1.2" marker-end="url(#arrow)" /><line x1="376.0" y1="1137.0" x2="444.0" y2="301.0" stroke="#7a8ca3" stroke-width="1.2" marker-end="url(#arrow)" /><line x1="186.0" y1="453.0" x2="254.0" y2="301.0" stroke="#7a8ca3" stroke-width="1.2" marker-end="url(#arrow)" /><line x1="186.0" y1="757.0" x2="254.0" y2="301.0" stroke="#7a8ca3" stroke-width="1.2" marker-end="url(#arrow)" /><line x1="566.0" y1="301.0" x2="634.0" y2="301.0" stroke="#7a8ca3" stroke-width="1.2" marker-end="url(#arrow)" /><line x1="376.0" y1="301.0" x2="634.0" y2="301.0" stroke="#7a8ca3" stroke-width="1.2" marker-end="url(#arrow)" /><line x1="186.0" y1="301.0" x2="444.0" y2="225.0" stroke="#7a8ca3" stroke-width="1.2" marker-end="url(#arrow)" /><line x1="376.0" y1="1137.0" x2="444.0" y2="225.0" stroke="#7a8ca3" stroke-width="1.2" marker-end="url(#arrow)" /><line x1="186.0" y1="377.0" x2="254.0" y2="225.0" stroke="#7a8ca3" stroke-width="1.2" marker-end="url(#arrow)" /><line x1="186.0" y1="757.0" x2="254.0" y2="225.0" stroke="#7a8ca3" stroke-width="1.2" marker-end="url(#arrow)" /><line x1="566.0" y1="225.0" x2="634.0" y2="225.0" stroke="#7a8ca3" stroke-width="1.2" marker-end="url(#arrow)" /><line x1="376.0" y1="225.0" x2="634.0" y2="225.0" stroke="#7a8ca3" stroke-width="1.2" marker-end="url(#arrow)" /><line x1="186.0" y1="225.0" x2="444.0" y2="149.0" stroke="#7a8ca3" stroke-width="1.2" marker-end="url(#arrow)" /><line x1="376.0" y1="1137.0" x2="444.0" y2="149.0" stroke="#7a8ca3" stroke-width="1.2" marker-end="url(#arrow)" /><line x1="186.0" y1="301.0" x2="254.0" y2="149.0" stroke="#7a8ca3" stroke-width="1.2" marker-end="url(#arrow)" /><line x1="186.0" y1="757.0" x2="254.0" y2="149.0" stroke="#7a8ca3" stroke-width="1.2" marker-end="url(#arrow)" /><line x1="566.0" y1="149.0" x2="634.0" y2="149.0" stroke="#7a8ca3" stroke-width="1.2" marker-end="url(#arrow)" /><line x1="376.0" y1="149.0" x2="634.0" y2="149.0" stroke="#7a8ca3" stroke-width="1.2" marker-end="url(#arrow)" /><line x1="186.0" y1="149.0" x2="444.0" y2="73.0" stroke="#7a8ca3" stroke-width="1.2" marker-end="url(#arrow)" /><line x1="376.0" y1="1137.0" x2="444.0" y2="73.0" stroke="#7a8ca3" stroke-width="1.2" marker-end="url(#arrow)" /><line x1="186.0" y1="225.0" x2="254.0" y2="73.0" stroke="#7a8ca3" stroke-width="1.2" marker-end="url(#arrow)" /><line x1="186.0" y1="757.0" x2="254.0" y2="73.0" stroke="#7a8ca3" stroke-width="1.2" marker-end="url(#arrow)" /><line x1="566.0" y1="73.0" x2="634.0" y2="73.0" stroke="#7a8ca3" stroke-width="1.2" marker-end="url(#arrow)" /><line x1="376.0" y1="73.0" x2="634.0" y2="73.0" stroke="#7a8ca3" stroke-width="1.2" marker-end="url(#arrow)" /><line x1="756.0" y1="605.0" x2="824.0" y2="1061.0" stroke="#7a8ca3" stroke-width="1.2" marker-end="url(#arrow)" /><line x1="376.0" y1="1213.0" x2="824.0" y2="1061.0" stroke="#7a8ca3" stroke-width="1.2" marker-end="url(#arrow)" /><line x1="186.0" y1="73.0" x2="254.0" y2="757.0" stroke="#7a8ca3" stroke-width="1.2" marker-end="url(#arrow)" /><line x1="186.0" y1="833.0" x2="254.0" y2="757.0" stroke="#7a8ca3" stroke-width="1.2" marker-end="url(#arrow)" /><line x1="946.0" y1="1061.0" x2="1014.0" y2="605.0" stroke="#7a8ca3" stroke-width="1.2" marker-end="url(#arrow)" /><line x1="376.0" y1="757.0" x2="1014.0" y2="605.0" stroke="#7a8ca3" stroke-width="1.2" marker-end="url(#arrow)" /><line x1="756.0" y1="529.0" x2="824.0" y2="985.0" stroke="#7a8ca3" stroke-width="1.2" marker-end="url(#arrow)" /><line x1="376.0" y1="1213.0" x2="824.0" y2="985.0" stroke="#7a8ca3" stroke-width="1.2" marker-end="url(#arrow)" /><line x1="186.0" y1="73.0" x2="254.0" y2="681.0" stroke="#7a8ca3" stroke-width="1.2" marker-end="url(#arrow)" /><line x1="186.0" y1="833.0" x2="254.0" y2="681.0" stroke="#7a8ca3" stroke-width="1.2" marker-end="url(#arrow)" /><line x1="946.0" y1="985.0" x2="1014.0" y2="529.0" stroke="#7a8ca3" stroke-width="1.2" marker-end="url(#arrow)" /><line x1="376.0" y1="681.0" x2="1014.0" y2="529.0" stroke="#7a8ca3" stroke-width="1.2" marker-end="url(#arrow)" /><line x1="756.0" y1="453.0" x2="824.0" y2="833.0" stroke="#7a8ca3" stroke-width="1.2" marker-end="url(#arrow)" /><line x1="376.0" y1="1213.0" x2="824.0" y2="833.0" stroke="#7a8ca3" stroke-width="1.2" marker-end="url(#arrow)" /><line x1="756.0" y1="605.0" x2="824.0" y2="909.0" stroke="#7a8ca3" stroke-width="1.2" marker-end="url(#arrow)" /><line x1="186.0" y1="833.0" x2="824.0" y2="909.0" stroke="#7a8ca3" stroke-width="1.2" marker-end="url(#arrow)" /><line x1="946.0" y1="833.0" x2="1014.0" y2="453.0" stroke="#7a8ca3" stroke-width="1.2" marker-end="url(#arrow)" /><line x1="946.0" y1="909.0" x2="1014.0" y2="453.0" stroke="#7a8ca3" stroke-width="1.2" marker-end="url(#arrow)" /><line x1="756.0" y1="377.0" x2="824.0" y2="681.0" stroke="#7a8ca3" stroke-width="1.2" marker-end="url(#arrow)" /><line x1="376.0" y1="1213.0" x2="824.0" y2="681.0" stroke="#7a8ca3" stroke-width="1.2" marker-end="url(#arrow)" /><line x1="756.0" y1="529.0" x2="824.0" y2="757.0" stroke="#7a8ca3" stroke-width="1.2" marker-end="url(#arrow)" /><line x1="186.0" y1="833.0" x2="824.0" y2="757.0" stroke="#7a8ca3" stroke-width="1.2" marker-end="url(#arrow)" /><line x1="946.0" y1="681.0" x2="1014.0" y2="377.0" stroke="#7a8ca3" stroke-width="1.2" marker-end="url(#arrow)" /><line x1="946.0" y1="757.0" x2="1014.0" y2="377.0" stroke="#7a8ca3" stroke-width="1.2" marker-end="url(#arrow)" /><line x1="756.0" y1="301.0" x2="824.0" y2="529.0" stroke="#7a8ca3" stroke-width="1.2" marker-end="url(#arrow)" /><line x1="376.0" y1="1213.0" x2="824.0" y2="529.0" stroke="#7a8ca3" stroke-width="1.2" marker-end="url(#arrow)" /><line x1="756.0" y1="453.0" x2="824.0" y2="605.0" stroke="#7a8ca3" stroke-width="1.2" marker-end="url(#arrow)" /><line x1="186.0" y1="833.0" x2="824.0" y2="605.0" stroke="#7a8ca3" stroke-width="1.2" marker-end="url(#arrow)" /><line x1="946.0" y1="529.0" x2="1014.0" y2="301.0" stroke="#7a8ca3" stroke-width="1.2" marker-end="url(#arrow)" /><line x1="946.0" y1="605.0" x2="1014.0" y2="301.0" stroke="#7a8ca3" stroke-width="1.2" marker-end="url(#arrow)" /><line x1="756.0" y1="225.0" x2="824.0" y2="377.0" stroke="#7a8ca3" stroke-width="1.2" marker-end="url(#arrow)" /><line x1="376.0" y1="1213.0" x2="824.0" y2="377.0" stroke="#7a8ca3" stroke-width="1.2" marker-end="url(#arrow)" /><line x1="756.0" y1="377.0" x2="824.0" y2="453.0" stroke="#7a8ca3" stroke-width="1.2" marker-end="url(#arrow)" /><line x1="186.0" y1="833.0" x2="824.0" y2="453.0" stroke="#7a8ca3" stroke-width="1.2" marker-end="url(#arrow)" /><line x1="946.0" y1="377.0" x2="1014.0" y2="225.0" stroke="#7a8ca3" stroke-width="1.2" marker-end="url(#arrow)" /><line x1="946.0" y1="453.0" x2="1014.0" y2="225.0" stroke="#7a8ca3" stroke-width="1.2" marker-end="url(#arrow)" /><line x1="756.0" y1="149.0" x2="824.0" y2="225.0" stroke="#7a8ca3" stroke-width="1.2" marker-end="url(#arrow)" /><line x1="376.0" y1="1213.0" x2="824.0" y2="225.0" stroke="#7a8ca3" stroke-width="1.2" marker-end="url(#arrow)" /><line x1="756.0" y1="301.0" x2="824.0" y2="301.0" stroke="#7a8ca3" stroke-width="1.2" marker-end="url(#arrow)" /><line x1="186.0" y1="833.0" x2="824.0" y2="301.0" stroke="#7a8ca3" stroke-width="1.2" marker-end="url(#arrow)" /><line x1="946.0" y1="225.0" x2="1014.0" y2="149.0" stroke="#7a8ca3" stroke-width="1.2" marker-end="url(#arrow)" /><line x1="946.0" y1="301.0" x2="1014.0" y2="149.0" stroke="#7a8ca3" stroke-width="1.2" marker-end="url(#arrow)" /><line x1="756.0" y1="73.0" x2="824.0" y2="73.0" stroke="#7a8ca3" stroke-width="1.2" marker-end="url(#arrow)" /><line x1="376.0" y1="1213.0" x2="824.0" y2="73.0" stroke="#7a8ca3" stroke-width="1.2" marker-end="url(#arrow)" /><line x1="756.0" y1="225.0" x2="824.0" y2="149.0" stroke="#7a8ca3" stroke-width="1.2" marker-end="url(#arrow)" /><line x1="186.0" y1="833.0" x2="824.0" y2="149.0" stroke="#7a8ca3" stroke-width="1.2" marker-end="url(#arrow)" /><line x1="946.0" y1="73.0" x2="1014.0" y2="73.0" stroke="#7a8ca3" stroke-width="1.2" marker-end="url(#arrow)" /><line x1="946.0" y1="149.0" x2="1014.0" y2="73.0" stroke="#7a8ca3" stroke-width="1.2" marker-end="url(#arrow)" /><line x1="1136.0" y1="605.0" x2="1204.0" y2="909.0" stroke="#7a8ca3" stroke-width="1.2" marker-end="url(#arrow)" /><line x1="376.0" y1="1289.0" x2="1204.0" y2="909.0" stroke="#7a8ca3" stroke-width="1.2" marker-end="url(#arrow)" /><line x1="186.0" y1="73.0" x2="254.0" y2="1061.0" stroke="#7a8ca3" stroke-width="1.2" marker-end="url(#arrow)" /><line x1="186.0" y1="909.0" x2="254.0" y2="1061.0" stroke="#7a8ca3" stroke-width="1.2" marker-end="url(#arrow)" /><line x1="1136.0" y1="529.0" x2="1204.0" y2="833.0" stroke="#7a8ca3" stroke-width="1.2" marker-end="url(#arrow)" /><line x1="376.0" y1="1289.0" x2="1204.0" y2="833.0" stroke="#7a8ca3" stroke-width="1.2" marker-end="url(#arrow)" /><line x1="186.0" y1="73.0" x2="254.0" y2="985.0" stroke="#7a8ca3" stroke-width="1.2" marker-end="url(#arrow)" /><line x1="186.0" y1="909.0" x2="254.0" y2="985.0" stroke="#7a8ca3" stroke-width="1.2" marker-end="url(#arrow)" /><line x1="1136.0" y1="453.0" x2="1204.0" y2="757.0" stroke="#7a8ca3" stroke-width="1.2" marker-end="url(#arrow)" /><line x1="376.0" y1="1289.0" x2="1204.0" y2="757.0" stroke="#7a8ca3" stroke-width="1.2" marker-end="url(#arrow)" /><line x1="186.0" y1="73.0" x2="254.0" y2="909.0" stroke="#7a8ca3" stroke-width="1.2" marker-end="url(#arrow)" /><line x1="186.0" y1="909.0" x2="254.0" y2="909.0" stroke="#7a8ca3" stroke-width="1.2" marker-end="url(#arrow)" /><line x1="1136.0" y1="377.0" x2="1204.0" y2="681.0" stroke="#7a8ca3" stroke-width="1.2" marker-end="url(#arrow)" /><line x1="376.0" y1="1289.0" x2="1204.0" y2="681.0" stroke="#7a8ca3" stroke-width="1.2" marker-end="url(#arrow)" /><line x1="186.0" y1="73.0" x2="254.0" y2="833.0" stroke="#7a8ca3" stroke-width="1.2" marker-end="url(#arrow)" /><line x1="186.0" y1="909.0" x2="254.0" y2="833.0" stroke="#7a8ca3" stroke-width="1.2" marker-end="url(#arrow)" /><line x1="1136.0" y1="301.0" x2="1204.0" y2="529.0" stroke="#7a8ca3" stroke-width="1.2" marker-end="url(#arrow)" /><line x1="376.0" y1="1289.0" x2="1204.0" y2="529.0" stroke="#7a8ca3" stroke-width="1.2" marker-end="url(#arrow)" /><line x1="1136.0" y1="605.0" x2="1204.0" y2="605.0" stroke="#7a8ca3" stroke-width="1.2" marker-end="url(#arrow)" /><line x1="186.0" y1="909.0" x2="1204.0" y2="605.0" stroke="#7a8ca3" stroke-width="1.2" marker-end="url(#arrow)" /><line x1="1136.0" y1="225.0" x2="1204.0" y2="377.0" stroke="#7a8ca3" stroke-width="1.2" marker-end="url(#arrow)" /><line x1="376.0" y1="1289.0" x2="1204.0" y2="377.0" stroke="#7a8ca3" stroke-width="1.2" marker-end="url(#arrow)" /><line x1="1136.0" y1="529.0" x2="1204.0" y2="453.0" stroke="#7a8ca3" stroke-width="1.2" marker-end="url(#arrow)" /><line x1="186.0" y1="909.0" x2="1204.0" y2="453.0" stroke="#7a8ca3" stroke-width="1.2" marker-end="url(#arrow)" /><line x1="1136.0" y1="149.0" x2="1204.0" y2="225.0" stroke="#7a8ca3" stroke-width="1.2" marker-end="url(#arrow)" /><line x1="376.0" y1="1289.0" x2="1204.0" y2="225.0" stroke="#7a8ca3" stroke-width="1.2" marker-end="url(#arrow)" /><line x1="1136.0" y1="453.0" x2="1204.0" y2="301.0" stroke="#7a8ca3" stroke-width="1.2" marker-end="url(#arrow)" /><line x1="186.0" y1="909.0" x2="1204.0" y2="301.0" stroke="#7a8ca3" stroke-width="1.2" marker-end="url(#arrow)" /><line x1="1136.0" y1="73.0" x2="1204.0" y2="73.0" stroke="#7a8ca3" stroke-width="1.2" marker-end="url(#arrow)" /><line x1="376.0" y1="1289.0" x2="1204.0" y2="73.0" stroke="#7a8ca3" stroke-width="1.2" marker-end="url(#arrow)" /><line x1="1136.0" y1="377.0" x2="1204.0" y2="149.0" stroke="#7a8ca3" stroke-width="1.2" marker-end="url(#arrow)" /><line x1="186.0" y1="909.0" x2="1204.0" y2="149.0" stroke="#7a8ca3" stroke-width="1.2" marker-end="url(#arrow)" /><rect x="1394" y="584" width="122" height="42" rx="9" ry="9" fill="#ffe8cc" stroke="#3d4f65" stroke-width="1.1" /><text x="1402" y="601" font-family="Segoe UI, Arial, sans-serif" font-size="11" fill="#10243f">y7</text><text x="1402" y="616" font-family="Segoe UI, Arial, sans-serif" font-size="10" fill="#4b647f">OR | 0</text><rect x="1394" y="508" width="122" height="42" rx="9" ry="9" fill="#ffe8cc" stroke="#3d4f65" stroke-width="1.1" /><text x="1402" y="525" font-family="Segoe UI, Arial, sans-serif" font-size="11" fill="#10243f">y6</text><text x="1402" y="540" font-family="Segoe UI, Arial, sans-serif" font-size="10" fill="#4b647f">OR | 0</text><rect x="1394" y="432" width="122" height="42" rx="9" ry="9" fill="#ffe8cc" stroke="#3d4f65" stroke-width="1.1" /><text x="1402" y="449" font-family="Segoe UI, Arial, sans-serif" font-size="11" fill="#10243f">y5</text><text x="1402" y="464" font-family="Segoe UI, Arial, sans-serif" font-size="10" fill="#4b647f">OR | 0</text><rect x="1394" y="356" width="122" height="42" rx="9" ry="9" fill="#ffe8cc" stroke="#3d4f65" stroke-width="1.1" /><text x="1402" y="373" font-family="Segoe UI, Arial, sans-serif" font-size="11" fill="#10243f">y4</text><text x="1402" y="388" font-family="Segoe UI, Arial, sans-serif" font-size="10" fill="#4b647f">OR | 0</text><rect x="1394" y="280" width="122" height="42" rx="9" ry="9" fill="#ffe8cc" stroke="#3d4f65" stroke-width="1.1" /><text x="1402" y="297" font-family="Segoe UI, Arial, sans-serif" font-size="11" fill="#10243f">y3</text><text x="1402" y="312" font-family="Segoe UI, Arial, sans-serif" font-size="10" fill="#4b647f">OR | 0</text><rect x="1394" y="204" width="122" height="42" rx="9" ry="9" fill="#ffe8cc" stroke="#3d4f65" stroke-width="1.1" /><text x="1402" y="221" font-family="Segoe UI, Arial, sans-serif" font-size="11" fill="#10243f">y2</text><text x="1402" y="236" font-family="Segoe UI, Arial, sans-serif" font-size="10" fill="#4b647f">OR | 1</text><rect x="1394" y="128" width="122" height="42" rx="9" ry="9" fill="#ffe8cc" stroke="#3d4f65" stroke-width="1.1" /><text x="1402" y="145" font-family="Segoe UI, Arial, sans-serif" font-size="11" fill="#10243f">y1</text><text x="1402" y="160" font-family="Segoe UI, Arial, sans-serif" font-size="10" fill="#4b647f">OR | 0</text><rect x="1394" y="52" width="122" height="42" rx="9" ry="9" fill="#ffe8cc" stroke="#3d4f65" stroke-width="1.1" /><text x="1402" y="69" font-family="Segoe UI, Arial, sans-serif" font-size="11" fill="#10243f">y0</text><text x="1402" y="84" font-family="Segoe UI, Arial, sans-serif" font-size="10" fill="#4b647f">OR | 1</text><rect x="64" y="660" width="122" height="42" rx="9" ry="9" fill="#d8f3dc" stroke="#3d4f65" stroke-width="1.1" /><text x="72" y="677" font-family="Segoe UI, Arial, sans-serif" font-size="11" fill="#10243f">a7</text><text x="72" y="692" font-family="Segoe UI, Arial, sans-serif" font-size="10" fill="#4b647f">PI | 1</text><rect x="64" y="584" width="122" height="42" rx="9" ry="9" fill="#d8f3dc" stroke="#3d4f65" stroke-width="1.1" /><text x="72" y="601" font-family="Segoe UI, Arial, sans-serif" font-size="11" fill="#10243f">a6</text><text x="72" y="616" font-family="Segoe UI, Arial, sans-serif" font-size="10" fill="#4b647f">PI | 0</text><rect x="64" y="508" width="122" height="42" rx="9" ry="9" fill="#d8f3dc" stroke="#3d4f65" stroke-width="1.1" /><text x="72" y="525" font-family="Segoe UI, Arial, sans-serif" font-size="11" fill="#10243f">a5</text><text x="72" y="540" font-family="Segoe UI, Arial, sans-serif" font-size="10" fill="#4b647f">PI | 1</text><rect x="64" y="432" width="122" height="42" rx="9" ry="9" fill="#d8f3dc" stroke="#3d4f65" stroke-width="1.1" /><text x="72" y="449" font-family="Segoe UI, Arial, sans-serif" font-size="11" fill="#10243f">a4</text><text x="72" y="464" font-family="Segoe UI, Arial, sans-serif" font-size="10" fill="#4b647f">PI | 0</text><rect x="64" y="356" width="122" height="42" rx="9" ry="9" fill="#d8f3dc" stroke="#3d4f65" stroke-width="1.1" /><text x="72" y="373" font-family="Segoe UI, Arial, sans-serif" font-size="11" fill="#10243f">a3</text><text x="72" y="388" font-family="Segoe UI, Arial, sans-serif" font-size="10" fill="#4b647f">PI | 1</text><rect x="64" y="280" width="122" height="42" rx="9" ry="9" fill="#d8f3dc" stroke="#3d4f65" stroke-width="1.1" /><text x="72" y="297" font-family="Segoe UI, Arial, sans-serif" font-size="11" fill="#10243f">a2</text><text x="72" y="312" font-family="Segoe UI, Arial, sans-serif" font-size="10" fill="#4b647f">PI | 0</text><rect x="64" y="204" width="122" height="42" rx="9" ry="9" fill="#d8f3dc" stroke="#3d4f65" stroke-width="1.1" /><text x="72" y="221" font-family="Segoe UI, Arial, sans-serif" font-size="11" fill="#10243f">a1</text><text x="72" y="236" font-family="Segoe UI, Arial, sans-serif" font-size="10" fill="#4b647f">PI | 1</text><rect x="64" y="128" width="122" height="42" rx="9" ry="9" fill="#d8f3dc" stroke="#3d4f65" stroke-width="1.1" /><text x="72" y="145" font-family="Segoe UI, Arial, sans-serif" font-size="11" fill="#10243f">a0</text><text x="72" y="160" font-family="Segoe UI, Arial, sans-serif" font-size="10" fill="#4b647f">PI | 0</text><rect x="64" y="888" width="122" height="42" rx="9" ry="9" fill="#d8f3dc" stroke="#3d4f65" stroke-width="1.1" /><text x="72" y="905" font-family="Segoe UI, Arial, sans-serif" font-size="11" fill="#10243f">s2</text><text x="72" y="920" font-family="Segoe UI, Arial, sans-serif" font-size="10" fill="#4b647f">PI | 1</text><rect x="64" y="812" width="122" height="42" rx="9" ry="9" fill="#d8f3dc" stroke="#3d4f65" stroke-width="1.1" /><text x="72" y="829" font-family="Segoe UI, Arial, sans-serif" font-size="11" fill="#10243f">s1</text><text x="72" y="844" font-family="Segoe UI, Arial, sans-serif" font-size="10" fill="#4b647f">PI | 0</text><rect x="64" y="736" width="122" height="42" rx="9" ry="9" fill="#d8f3dc" stroke="#3d4f65" stroke-width="1.1" /><text x="72" y="753" font-family="Segoe UI, Arial, sans-serif" font-size="11" fill="#10243f">s0</text><text x="72" y="768" font-family="Segoe UI, Arial, sans-serif" font-size="10" fill="#4b647f">PI | 1</text><rect x="254" y="1116" width="122" height="42" rx="9" ry="9" fill="#e7f5ff" stroke="#3d4f65" stroke-width="1.1" /><text x="262" y="1133" font-family="Segoe UI, Arial, sans-serif" font-size="11" fill="#10243f">ns0</text><text x="262" y="1148" font-family="Segoe UI, Arial, sans-serif" font-size="10" fill="#4b647f">NOT | 0</text><rect x="254" y="1192" width="122" height="42" rx="9" ry="9" fill="#e7f5ff" stroke="#3d4f65" stroke-width="1.1" /><text x="262" y="1209" font-family="Segoe UI, Arial, sans-serif" font-size="11" fill="#10243f">ns1</text><text x="262" y="1224" font-family="Segoe UI, Arial, sans-serif" font-size="10" fill="#4b647f">NOT | 1</text><rect x="254" y="1268" width="122" height="42" rx="9" ry="9" fill="#e7f5ff" stroke="#3d4f65" stroke-width="1.1" /><text x="262" y="1285" font-family="Segoe UI, Arial, sans-serif" font-size="11" fill="#10243f">ns2</text><text x="262" y="1300" font-family="Segoe UI, Arial, sans-serif" font-size="10" fill="#4b647f">NOT | 0</text><rect x="444" y="584" width="122" height="42" rx="9" ry="9" fill="#e7f5ff" stroke="#3d4f65" stroke-width="1.1" /><text x="452" y="601" font-family="Segoe UI, Arial, sans-serif" font-size="11" fill="#10243f">m0_7_a</text><text x="452" y="616" font-family="Segoe UI, Arial, sans-serif" font-size="10" fill="#4b647f">AND | 0</text><rect x="254" y="584" width="122" height="42" rx="9" ry="9" fill="#e7f5ff" stroke="#3d4f65" stroke-width="1.1" /><text x="262" y="601" font-family="Segoe UI, Arial, sans-serif" font-size="11" fill="#10243f">m0_7_b</text><text x="262" y="616" font-family="Segoe UI, Arial, sans-serif" font-size="10" fill="#4b647f">AND | 0</text><rect x="64" y="52" width="122" height="42" rx="9" ry="9" fill="#f1f3f5" stroke="#3d4f65" stroke-width="1.1" /><text x="72" y="69" font-family="Segoe UI, Arial, sans-serif" font-size="11" fill="#10243f">1&#x27;b0</text><text x="72" y="84" font-family="Segoe UI, Arial, sans-serif" font-size="10" fill="#4b647f">CONST | 0</text><rect x="634" y="584" width="122" height="42" rx="9" ry="9" fill="#e7f5ff" stroke="#3d4f65" stroke-width="1.1" /><text x="642" y="601" font-family="Segoe UI, Arial, sans-serif" font-size="11" fill="#10243f">st0_7</text><text x="642" y="616" font-family="Segoe UI, Arial, sans-serif" font-size="10" fill="#4b647f">OR | 0</text><rect x="444" y="508" width="122" height="42" rx="9" ry="9" fill="#e7f5ff" stroke="#3d4f65" stroke-width="1.1" /><text x="452" y="525" font-family="Segoe UI, Arial, sans-serif" font-size="11" fill="#10243f">m0_6_a</text><text x="452" y="540" font-family="Segoe UI, Arial, sans-serif" font-size="10" fill="#4b647f">AND | 0</text><rect x="254" y="508" width="122" height="42" rx="9" ry="9" fill="#e7f5ff" stroke="#3d4f65" stroke-width="1.1" /><text x="262" y="525" font-family="Segoe UI, Arial, sans-serif" font-size="11" fill="#10243f">m0_6_b</text><text x="262" y="540" font-family="Segoe UI, Arial, sans-serif" font-size="10" fill="#4b647f">AND | 1</text><rect x="634" y="508" width="122" height="42" rx="9" ry="9" fill="#e7f5ff" stroke="#3d4f65" stroke-width="1.1" /><text x="642" y="525" font-family="Segoe UI, Arial, sans-serif" font-size="11" fill="#10243f">st0_6</text><text x="642" y="540" font-family="Segoe UI, Arial, sans-serif" font-size="10" fill="#4b647f">OR | 1</text><rect x="444" y="432" width="122" height="42" rx="9" ry="9" fill="#e7f5ff" stroke="#3d4f65" stroke-width="1.1" /><text x="452" y="449" font-family="Segoe UI, Arial, sans-serif" font-size="11" fill="#10243f">m0_5_a</text><text x="452" y="464" font-family="Segoe UI, Arial, sans-serif" font-size="10" fill="#4b647f">AND | 0</text><rect x="254" y="432" width="122" height="42" rx="9" ry="9" fill="#e7f5ff" stroke="#3d4f65" stroke-width="1.1" /><text x="262" y="449" font-family="Segoe UI, Arial, sans-serif" font-size="11" fill="#10243f">m0_5_b</text><text x="262" y="464" font-family="Segoe UI, Arial, sans-serif" font-size="10" fill="#4b647f">AND | 0</text><rect x="634" y="432" width="122" height="42" rx="9" ry="9" fill="#e7f5ff" stroke="#3d4f65" stroke-width="1.1" /><text x="642" y="449" font-family="Segoe UI, Arial, sans-serif" font-size="11" fill="#10243f">st0_5</text><text x="642" y="464" font-family="Segoe UI, Arial, sans-serif" font-size="10" fill="#4b647f">OR | 0</text><rect x="444" y="356" width="122" height="42" rx="9" ry="9" fill="#e7f5ff" stroke="#3d4f65" stroke-width="1.1" /><text x="452" y="373" font-family="Segoe UI, Arial, sans-serif" font-size="11" fill="#10243f">m0_4_a</text><text x="452" y="388" font-family="Segoe UI, Arial, sans-serif" font-size="10" fill="#4b647f">AND | 0</text><rect x="254" y="356" width="122" height="42" rx="9" ry="9" fill="#e7f5ff" stroke="#3d4f65" stroke-width="1.1" /><text x="262" y="373" font-family="Segoe UI, Arial, sans-serif" font-size="11" fill="#10243f">m0_4_b</text><text x="262" y="388" font-family="Segoe UI, Arial, sans-serif" font-size="10" fill="#4b647f">AND | 1</text><rect x="634" y="356" width="122" height="42" rx="9" ry="9" fill="#e7f5ff" stroke="#3d4f65" stroke-width="1.1" /><text x="642" y="373" font-family="Segoe UI, Arial, sans-serif" font-size="11" fill="#10243f">st0_4</text><text x="642" y="388" font-family="Segoe UI, Arial, sans-serif" font-size="10" fill="#4b647f">OR | 1</text><rect x="444" y="280" width="122" height="42" rx="9" ry="9" fill="#e7f5ff" stroke="#3d4f65" stroke-width="1.1" /><text x="452" y="297" font-family="Segoe UI, Arial, sans-serif" font-size="11" fill="#10243f">m0_3_a</text><text x="452" y="312" font-family="Segoe UI, Arial, sans-serif" font-size="10" fill="#4b647f">AND | 0</text><rect x="254" y="280" width="122" height="42" rx="9" ry="9" fill="#e7f5ff" stroke="#3d4f65" stroke-width="1.1" /><text x="262" y="297" font-family="Segoe UI, Arial, sans-serif" font-size="11" fill="#10243f">m0_3_b</text><text x="262" y="312" font-family="Segoe UI, Arial, sans-serif" font-size="10" fill="#4b647f">AND | 0</text><rect x="634" y="280" width="122" height="42" rx="9" ry="9" fill="#e7f5ff" stroke="#3d4f65" stroke-width="1.1" /><text x="642" y="297" font-family="Segoe UI, Arial, sans-serif" font-size="11" fill="#10243f">st0_3</text><text x="642" y="312" font-family="Segoe UI, Arial, sans-serif" font-size="10" fill="#4b647f">OR | 0</text><rect x="444" y="204" width="122" height="42" rx="9" ry="9" fill="#e7f5ff" stroke="#3d4f65" stroke-width="1.1" /><text x="452" y="221" font-family="Segoe UI, Arial, sans-serif" font-size="11" fill="#10243f">m0_2_a</text><text x="452" y="236" font-family="Segoe UI, Arial, sans-serif" font-size="10" fill="#4b647f">AND | 0</text><rect x="254" y="204" width="122" height="42" rx="9" ry="9" fill="#e7f5ff" stroke="#3d4f65" stroke-width="1.1" /><text x="262" y="221" font-family="Segoe UI, Arial, sans-serif" font-size="11" fill="#10243f">m0_2_b</text><text x="262" y="236" font-family="Segoe UI, Arial, sans-serif" font-size="10" fill="#4b647f">AND | 1</text><rect x="634" y="204" width="122" height="42" rx="9" ry="9" fill="#e7f5ff" stroke="#3d4f65" stroke-width="1.1" /><text x="642" y="221" font-family="Segoe UI, Arial, sans-serif" font-size="11" fill="#10243f">st0_2</text><text x="642" y="236" font-family="Segoe UI, Arial, sans-serif" font-size="10" fill="#4b647f">OR | 1</text><rect x="444" y="128" width="122" height="42" rx="9" ry="9" fill="#e7f5ff" stroke="#3d4f65" stroke-width="1.1" /><text x="452" y="145" font-family="Segoe UI, Arial, sans-serif" font-size="11" fill="#10243f">m0_1_a</text><text x="452" y="160" font-family="Segoe UI, Arial, sans-serif" font-size="10" fill="#4b647f">AND | 0</text><rect x="254" y="128" width="122" height="42" rx="9" ry="9" fill="#e7f5ff" stroke="#3d4f65" stroke-width="1.1" /><text x="262" y="145" font-family="Segoe UI, Arial, sans-serif" font-size="11" fill="#10243f">m0_1_b</text><text x="262" y="160" font-family="Segoe UI, Arial, sans-serif" font-size="10" fill="#4b647f">AND | 0</text><rect x="634" y="128" width="122" height="42" rx="9" ry="9" fill="#e7f5ff" stroke="#3d4f65" stroke-width="1.1" /><text x="642" y="145" font-family="Segoe UI, Arial, sans-serif" font-size="11" fill="#10243f">st0_1</text><text x="642" y="160" font-family="Segoe UI, Arial, sans-serif" font-size="10" fill="#4b647f">OR | 0</text><rect x="444" y="52" width="122" height="42" rx="9" ry="9" fill="#e7f5ff" stroke="#3d4f65" stroke-width="1.1" /><text x="452" y="69" font-family="Segoe UI, Arial, sans-serif" font-size="11" fill="#10243f">m0_0_a</text><text x="452" y="84" font-family="Segoe UI, Arial, sans-serif" font-size="10" fill="#4b647f">AND | 0</text><rect x="254" y="52" width="122" height="42" rx="9" ry="9" fill="#e7f5ff" stroke="#3d4f65" stroke-width="1.1" /><text x="262" y="69" font-family="Segoe UI, Arial, sans-serif" font-size="11" fill="#10243f">m0_0_b</text><text x="262" y="84" font-family="Segoe UI, Arial, sans-serif" font-size="10" fill="#4b647f">AND | 1</text><rect x="634" y="52" width="122" height="42" rx="9" ry="9" fill="#e7f5ff" stroke="#3d4f65" stroke-width="1.1" /><text x="642" y="69" font-family="Segoe UI, Arial, sans-serif" font-size="11" fill="#10243f">st0_0</text><text x="642" y="84" font-family="Segoe UI, Arial, sans-serif" font-size="10" fill="#4b647f">OR | 1</text><rect x="824" y="1040" width="122" height="42" rx="9" ry="9" fill="#e7f5ff" stroke="#3d4f65" stroke-width="1.1" /><text x="832" y="1057" font-family="Segoe UI, Arial, sans-serif" font-size="11" fill="#10243f">m1_7_a</text><text x="832" y="1072" font-family="Segoe UI, Arial, sans-serif" font-size="10" fill="#4b647f">AND | 0</text><rect x="254" y="736" width="122" height="42" rx="9" ry="9" fill="#e7f5ff" stroke="#3d4f65" stroke-width="1.1" /><text x="262" y="753" font-family="Segoe UI, Arial, sans-serif" font-size="11" fill="#10243f">m1_7_b</text><text x="262" y="768" font-family="Segoe UI, Arial, sans-serif" font-size="10" fill="#4b647f">AND | 0</text><rect x="1014" y="584" width="122" height="42" rx="9" ry="9" fill="#e7f5ff" stroke="#3d4f65" stroke-width="1.1" /><text x="1022" y="601" font-family="Segoe UI, Arial, sans-serif" font-size="11" fill="#10243f">st1_7</text><text x="1022" y="616" font-family="Segoe UI, Arial, sans-serif" font-size="10" fill="#4b647f">OR | 0</text><rect x="824" y="964" width="122" height="42" rx="9" ry="9" fill="#e7f5ff" stroke="#3d4f65" stroke-width="1.1" /><text x="832" y="981" font-family="Segoe UI, Arial, sans-serif" font-size="11" fill="#10243f">m1_6_a</text><text x="832" y="996" font-family="Segoe UI, Arial, sans-serif" font-size="10" fill="#4b647f">AND | 1</text><rect x="254" y="660" width="122" height="42" rx="9" ry="9" fill="#e7f5ff" stroke="#3d4f65" stroke-width="1.1" /><text x="262" y="677" font-family="Segoe UI, Arial, sans-serif" font-size="11" fill="#10243f">m1_6_b</text><text x="262" y="692" font-family="Segoe UI, Arial, sans-serif" font-size="10" fill="#4b647f">AND | 0</text><rect x="1014" y="508" width="122" height="42" rx="9" ry="9" fill="#e7f5ff" stroke="#3d4f65" stroke-width="1.1" /><text x="1022" y="525" font-family="Segoe UI, Arial, sans-serif" font-size="11" fill="#10243f">st1_6</text><text x="1022" y="540" font-family="Segoe UI, Arial, sans-serif" font-size="10" fill="#4b647f">OR | 1</text><rect x="824" y="812" width="122" height="42" rx="9" ry="9" fill="#e7f5ff" stroke="#3d4f65" stroke-width="1.1" /><text x="832" y="829" font-family="Segoe UI, Arial, sans-serif" font-size="11" fill="#10243f">m1_5_a</text><text x="832" y="844" font-family="Segoe UI, Arial, sans-serif" font-size="10" fill="#4b647f">AND | 0</text><rect x="824" y="888" width="122" height="42" rx="9" ry="9" fill="#e7f5ff" stroke="#3d4f65" stroke-width="1.1" /><text x="832" y="905" font-family="Segoe UI, Arial, sans-serif" font-size="11" fill="#10243f">m1_5_b</text><text x="832" y="920" font-family="Segoe UI, Arial, sans-serif" font-size="10" fill="#4b647f">AND | 0</text><rect x="1014" y="432" width="122" height="42" rx="9" ry="9" fill="#e7f5ff" stroke="#3d4f65" stroke-width="1.1" /><text x="1022" y="449" font-family="Segoe UI, Arial, sans-serif" font-size="11" fill="#10243f">st1_5</text><text x="1022" y="464" font-family="Segoe UI, Arial, sans-serif" font-size="10" fill="#4b647f">OR | 0</text><rect x="824" y="660" width="122" height="42" rx="9" ry="9" fill="#e7f5ff" stroke="#3d4f65" stroke-width="1.1" /><text x="832" y="677" font-family="Segoe UI, Arial, sans-serif" font-size="11" fill="#10243f">m1_4_a</text><text x="832" y="692" font-family="Segoe UI, Arial, sans-serif" font-size="10" fill="#4b647f">AND | 1</text><rect x="824" y="736" width="122" height="42" rx="9" ry="9" fill="#e7f5ff" stroke="#3d4f65" stroke-width="1.1" /><text x="832" y="753" font-family="Segoe UI, Arial, sans-serif" font-size="11" fill="#10243f">m1_4_b</text><text x="832" y="768" font-family="Segoe UI, Arial, sans-serif" font-size="10" fill="#4b647f">AND | 0</text><rect x="1014" y="356" width="122" height="42" rx="9" ry="9" fill="#e7f5ff" stroke="#3d4f65" stroke-width="1.1" /><text x="1022" y="373" font-family="Segoe UI, Arial, sans-serif" font-size="11" fill="#10243f">st1_4</text><text x="1022" y="388" font-family="Segoe UI, Arial, sans-serif" font-size="10" fill="#4b647f">OR | 1</text><rect x="824" y="508" width="122" height="42" rx="9" ry="9" fill="#e7f5ff" stroke="#3d4f65" stroke-width="1.1" /><text x="832" y="525" font-family="Segoe UI, Arial, sans-serif" font-size="11" fill="#10243f">m1_3_a</text><text x="832" y="540" font-family="Segoe UI, Arial, sans-serif" font-size="10" fill="#4b647f">AND | 0</text><rect x="824" y="584" width="122" height="42" rx="9" ry="9" fill="#e7f5ff" stroke="#3d4f65" stroke-width="1.1" /><text x="832" y="601" font-family="Segoe UI, Arial, sans-serif" font-size="11" fill="#10243f">m1_3_b</text><text x="832" y="616" font-family="Segoe UI, Arial, sans-serif" font-size="10" fill="#4b647f">AND | 0</text><rect x="1014" y="280" width="122" height="42" rx="9" ry="9" fill="#e7f5ff" stroke="#3d4f65" stroke-width="1.1" /><text x="1022" y="297" font-family="Segoe UI, Arial, sans-serif" font-size="11" fill="#10243f">st1_3</text><text x="1022" y="312" font-family="Segoe UI, Arial, sans-serif" font-size="10" fill="#4b647f">OR | 0</text><rect x="824" y="356" width="122" height="42" rx="9" ry="9" fill="#e7f5ff" stroke="#3d4f65" stroke-width="1.1" /><text x="832" y="373" font-family="Segoe UI, Arial, sans-serif" font-size="11" fill="#10243f">m1_2_a</text><text x="832" y="388" font-family="Segoe UI, Arial, sans-serif" font-size="10" fill="#4b647f">AND | 1</text><rect x="824" y="432" width="122" height="42" rx="9" ry="9" fill="#e7f5ff" stroke="#3d4f65" stroke-width="1.1" /><text x="832" y="449" font-family="Segoe UI, Arial, sans-serif" font-size="11" fill="#10243f">m1_2_b</text><text x="832" y="464" font-family="Segoe UI, Arial, sans-serif" font-size="10" fill="#4b647f">AND | 0</text><rect x="1014" y="204" width="122" height="42" rx="9" ry="9" fill="#e7f5ff" stroke="#3d4f65" stroke-width="1.1" /><text x="1022" y="221" font-family="Segoe UI, Arial, sans-serif" font-size="11" fill="#10243f">st1_2</text><text x="1022" y="236" font-family="Segoe UI, Arial, sans-serif" font-size="10" fill="#4b647f">OR | 1</text><rect x="824" y="204" width="122" height="42" rx="9" ry="9" fill="#e7f5ff" stroke="#3d4f65" stroke-width="1.1" /><text x="832" y="221" font-family="Segoe UI, Arial, sans-serif" font-size="11" fill="#10243f">m1_1_a</text><text x="832" y="236" font-family="Segoe UI, Arial, sans-serif" font-size="10" fill="#4b647f">AND | 0</text><rect x="824" y="280" width="122" height="42" rx="9" ry="9" fill="#e7f5ff" stroke="#3d4f65" stroke-width="1.1" /><text x="832" y="297" font-family="Segoe UI, Arial, sans-serif" font-size="11" fill="#10243f">m1_1_b</text><text x="832" y="312" font-family="Segoe UI, Arial, sans-serif" font-size="10" fill="#4b647f">AND | 0</text><rect x="1014" y="128" width="122" height="42" rx="9" ry="9" fill="#e7f5ff" stroke="#3d4f65" stroke-width="1.1" /><text x="1022" y="145" font-family="Segoe UI, Arial, sans-serif" font-size="11" fill="#10243f">st1_1</text><text x="1022" y="160" font-family="Segoe UI, Arial, sans-serif" font-size="10" fill="#4b647f">OR | 0</text><rect x="824" y="52" width="122" height="42" rx="9" ry="9" fill="#e7f5ff" stroke="#3d4f65" stroke-width="1.1" /><text x="832" y="69" font-family="Segoe UI, Arial, sans-serif" font-size="11" fill="#10243f">m1_0_a</text><text x="832" y="84" font-family="Segoe UI, Arial, sans-serif" font-size="10" fill="#4b647f">AND | 1</text><rect x="824" y="128" width="122" height="42" rx="9" ry="9" fill="#e7f5ff" stroke="#3d4f65" stroke-width="1.1" /><text x="832" y="145" font-family="Segoe UI, Arial, sans-serif" font-size="11" fill="#10243f">m1_0_b</text><text x="832" y="160" font-family="Segoe UI, Arial, sans-serif" font-size="10" fill="#4b647f">AND | 0</text><rect x="1014" y="52" width="122" height="42" rx="9" ry="9" fill="#e7f5ff" stroke="#3d4f65" stroke-width="1.1" /><text x="1022" y="69" font-family="Segoe UI, Arial, sans-serif" font-size="11" fill="#10243f">st1_0</text><text x="1022" y="84" font-family="Segoe UI, Arial, sans-serif" font-size="10" fill="#4b647f">OR | 1</text><rect x="1204" y="888" width="122" height="42" rx="9" ry="9" fill="#e7f5ff" stroke="#3d4f65" stroke-width="1.1" /><text x="1212" y="905" font-family="Segoe UI, Arial, sans-serif" font-size="11" fill="#10243f">m2_7_a</text><text x="1212" y="920" font-family="Segoe UI, Arial, sans-serif" font-size="10" fill="#4b647f">AND | 0</text><rect x="254" y="1040" width="122" height="42" rx="9" ry="9" fill="#e7f5ff" stroke="#3d4f65" stroke-width="1.1" /><text x="262" y="1057" font-family="Segoe UI, Arial, sans-serif" font-size="11" fill="#10243f">m2_7_b</text><text x="262" y="1072" font-family="Segoe UI, Arial, sans-serif" font-size="10" fill="#4b647f">AND | 0</text><rect x="1204" y="812" width="122" height="42" rx="9" ry="9" fill="#e7f5ff" stroke="#3d4f65" stroke-width="1.1" /><text x="1212" y="829" font-family="Segoe UI, Arial, sans-serif" font-size="11" fill="#10243f">m2_6_a</text><text x="1212" y="844" font-family="Segoe UI, Arial, sans-serif" font-size="10" fill="#4b647f">AND | 0</text><rect x="254" y="964" width="122" height="42" rx="9" ry="9" fill="#e7f5ff" stroke="#3d4f65" stroke-width="1.1" /><text x="262" y="981" font-family="Segoe UI, Arial, sans-serif" font-size="11" fill="#10243f">m2_6_b</text><text x="262" y="996" font-family="Segoe UI, Arial, sans-serif" font-size="10" fill="#4b647f">AND | 0</text><rect x="1204" y="736" width="122" height="42" rx="9" ry="9" fill="#e7f5ff" stroke="#3d4f65" stroke-width="1.1" /><text x="1212" y="753" font-family="Segoe UI, Arial, sans-serif" font-size="11" fill="#10243f">m2_5_a</text><text x="1212" y="768" font-family="Segoe UI, Arial, sans-serif" font-size="10" fill="#4b647f">AND | 0</text><rect x="254" y="888" width="122" height="42" rx="9" ry="9" fill="#e7f5ff" stroke="#3d4f65" stroke-width="1.1" /><text x="262" y="905" font-family="Segoe UI, Arial, sans-serif" font-size="11" fill="#10243f">m2_5_b</text><text x="262" y="920" font-family="Segoe UI, Arial, sans-serif" font-size="10" fill="#4b647f">AND | 0</text><rect x="1204" y="660" width="122" height="42" rx="9" ry="9" fill="#e7f5ff" stroke="#3d4f65" stroke-width="1.1" /><text x="1212" y="677" font-family="Segoe UI, Arial, sans-serif" font-size="11" fill="#10243f">m2_4_a</text><text x="1212" y="692" font-family="Segoe UI, Arial, sans-serif" font-size="10" fill="#4b647f">AND | 0</text><rect x="254" y="812" width="122" height="42" rx="9" ry="9" fill="#e7f5ff" stroke="#3d4f65" stroke-width="1.1" /><text x="262" y="829" font-family="Segoe UI, Arial, sans-serif" font-size="11" fill="#10243f">m2_4_b</text><text x="262" y="844" font-family="Segoe UI, Arial, sans-serif" font-size="10" fill="#4b647f">AND | 0</text><rect x="1204" y="508" width="122" height="42" rx="9" ry="9" fill="#e7f5ff" stroke="#3d4f65" stroke-width="1.1" /><text x="1212" y="525" font-family="Segoe UI, Arial, sans-serif" font-size="11" fill="#10243f">m2_3_a</text><text x="1212" y="540" font-family="Segoe UI, Arial, sans-serif" font-size="10" fill="#4b647f">AND | 0</text><rect x="1204" y="584" width="122" height="42" rx="9" ry="9" fill="#e7f5ff" stroke="#3d4f65" stroke-width="1.1" /><text x="1212" y="601" font-family="Segoe UI, Arial, sans-serif" font-size="11" fill="#10243f">m2_3_b</text><text x="1212" y="616" font-family="Segoe UI, Arial, sans-serif" font-size="10" fill="#4b647f">AND | 0</text><rect x="1204" y="356" width="122" height="42" rx="9" ry="9" fill="#e7f5ff" stroke="#3d4f65" stroke-width="1.1" /><text x="1212" y="373" font-family="Segoe UI, Arial, sans-serif" font-size="11" fill="#10243f">m2_2_a</text><text x="1212" y="388" font-family="Segoe UI, Arial, sans-serif" font-size="10" fill="#4b647f">AND | 0</text><rect x="1204" y="432" width="122" height="42" rx="9" ry="9" fill="#e7f5ff" stroke="#3d4f65" stroke-width="1.1" /><text x="1212" y="449" font-family="Segoe UI, Arial, sans-serif" font-size="11" fill="#10243f">m2_2_b</text><text x="1212" y="464" font-family="Segoe UI, Arial, sans-serif" font-size="10" fill="#4b647f">AND | 1</text><rect x="1204" y="204" width="122" height="42" rx="9" ry="9" fill="#e7f5ff" stroke="#3d4f65" stroke-width="1.1" /><text x="1212" y="221" font-family="Segoe UI, Arial, sans-serif" font-size="11" fill="#10243f">m2_1_a</text><text x="1212" y="236" font-family="Segoe UI, Arial, sans-serif" font-size="10" fill="#4b647f">AND | 0</text><rect x="1204" y="280" width="122" height="42" rx="9" ry="9" fill="#e7f5ff" stroke="#3d4f65" stroke-width="1.1" /><text x="1212" y="297" font-family="Segoe UI, Arial, sans-serif" font-size="11" fill="#10243f">m2_1_b</text><text x="1212" y="312" font-family="Segoe UI, Arial, sans-serif" font-size="10" fill="#4b647f">AND | 0</text><rect x="1204" y="52" width="122" height="42" rx="9" ry="9" fill="#e7f5ff" stroke="#3d4f65" stroke-width="1.1" /><text x="1212" y="69" font-family="Segoe UI, Arial, sans-serif" font-size="11" fill="#10243f">m2_0_a</text><text x="1212" y="84" font-family="Segoe UI, Arial, sans-serif" font-size="10" fill="#4b647f">AND | 0</text><rect x="1204" y="128" width="122" height="42" rx="9" ry="9" fill="#e7f5ff" stroke="#3d4f65" stroke-width="1.1" /><text x="1212" y="145" font-family="Segoe UI, Arial, sans-serif" font-size="11" fill="#10243f">m2_0_b</text><text x="1212" y="160" font-family="Segoe UI, Arial, sans-serif" font-size="10" fill="#4b647f">AND | 1</text></svg>