<svg xmlns="http://www.w3.org/2000/svg" width="1580" height="374" viewBox="0 0 1580 374"><defs><marker id="arrow" viewBox="0 0 10 10" refX="8" refY="5" markerWidth="6" markerHeight="6" orient="auto-start-reverse"><path d="M 0 0 L 10 5 L 0 10 z" fill="#7a8ca3" /></marker></defs><rect x="0" y="0" width="100%" height="100%" fill="#fbfcff" /><line x1="1136.0" y1="149.0" x2="1204.0" y2="73.0" stroke="#7a8ca3" stroke-width="1.2" marker-end="url(#arrow)" /><line x1="1136.0" y1="225.0" x2="1204.0" y2="73.0" stroke="#7a8ca3" stroke-width="1.2" marker-end="url(#arrow)" /><line x1="376.0" y1="73.0" x2="1014.0" y2="73.0" stroke="#7a8ca3" stroke-width="1.2" marker-end="url(#arrow)" /><line x1="946.0" y1="73.0" x2="1014.0" y2="73.0" stroke="#7a8ca3" stroke-width="1.2" marker-end="url(#arrow)" /><line x1="186.0" y1="73.0" x2="254.0" y2="73.0" stroke="#7a8ca3" stroke-width="1.2" marker-end="url(#arrow)" /><line x1="186.0" y1="149.0" x2="254.0" y2="73.0" stroke="#7a8ca3" stroke-width="1.2" marker-end="url(#arrow)" /><line x1="186.0" y1="73.0" x2="444.0" y2="73.0" stroke="#7a8ca3" stroke-width="1.2" marker-end="url(#arrow)" /><line x1="376.0" y1="73.0" x2="444.0" y2="73.0" stroke="#7a8ca3" stroke-width="1.2" marker-end="url(#arrow)" /><line x1="186.0" y1="149.0" x2="444.0" y2="149.0" stroke="#7a8ca3" stroke-width="1.2" marker-end="url(#arrow)" /><line x1="376.0" y1="73.0" x2="444.0" y2="149.0" stroke="#7a8ca3" stroke-width="1.2" marker-end="url(#arrow)" /><line x1="566.0" y1="73.0" x2="634.0" y2="73.0" stroke="#7a8ca3" stroke-width="1.2" marker-end="url(#arrow)" /><line x1="566.0" y1="149.0" x2="634.0" y2="73.0" stroke="#7a8ca3" stroke-width="1.2" marker-end="url(#arrow)" /><line x1="756.0" y1="73.0" x2="824.0" y2="73.0" stroke="#7a8ca3" stroke-width="1.2" marker-end="url(#arrow)" /><line x1="186.0" y1="225.0" x2="824.0" y2="73.0" stroke="#7a8ca3" stroke-width="1.2" marker-end="url(#arrow)" /><line x1="756.0" y1="73.0" x2="1014.0" y2="149.0" stroke="#7a8ca3" stroke-width="1.2" marker-end="url(#arrow)" /><line x1="946.0" y1="73.0" x2="1014.0" y2="149.0" stroke="#7a8ca3" stroke-width="1.2" marker-end="url(#arrow)" /><line x1="186.0" y1="225.0" x2="1014.0" y2="225.0" stroke="#7a8ca3" stroke-width="1.2" marker-end="url(#arrow)" /><line x1="946.0" y1="73.0" x2="1014.0" y2="225.0" stroke="#7a8ca3" stroke-width="1.2" marker-end="url(#arrow)" /><rect x="64" y="52" width="122" height="42" rx="9" ry="9" fill="#d8f3dc" stroke="#3d4f65" stroke-width="1.1" /><text x="72" y="69" font-family="Segoe UI, Arial, sans-serif" font-size="11" fill="#10243f">A</text><text x="72" y="84" font-family="Segoe UI, Arial, sans-serif" font-size="10" fill="#4b647f">PI | 1</text><rect x="64" y="128" width="122" height="42" rx="9" ry="9" fill="#d8f3dc" stroke="#3d4f65" stroke-width="1.1" /><text x="72" y="145" font-family="Segoe UI, Arial, sans-serif" font-size="11" fill="#10243f">B</text><text x="72" y="160" font-family="Segoe UI, Arial, sans-serif" font-size="10" fill="#4b647f">PI | 0</text><rect x="64" y="204" width="122" height="42" rx="9" ry="9" fill="#d8f3dc" stroke="#3d4f65" stroke-width="1.1" /><text x="72" y="221" font-family="Segoe UI, Arial, sans-serif" font-size="11" fill="#10243f">Cin</text><text x="72" y="236" font-family="Segoe UI, Arial, sans-serif" font-size="10" fill="#4b647f">PI | 1</text><rect x="1204" y="52" width="122" height="42" rx="9" ry="9" fill="#ffe8cc" stroke="#3d4f65" stroke-width="1.1" /><text x="1212" y="69" font-family="Segoe UI, Arial, sans-serif" font-size="11" fill="#10243f">Sum</text><text x="1212" y="84" font-family="Segoe UI, Arial, sans-serif" font-size="10" fill="#4b647f">NAND | 0</text><rect x="1014" y="52" width="122" height="42" rx="9" ry="9" fill="#ffe8cc" stroke="#3d4f65" stroke-width="1.1" /><text x="1022" y="69" font-family="Segoe UI, Arial, sans-serif" font-size="11" fill="#10243f">Cout</text><text x="1022" y="84" font-family="Segoe UI, Arial, sans-serif" font-size="10" fill="#4b647f">NAND | 1</text><rect x="254" y="52" width="122" height="42" rx="9" ry="9" fill="#e7f5ff" stroke="#3d4f65" stroke-width="1.1" /><text x="262" y="69" font-family="Segoe UI, Arial, sans-serif" font-size="11" fill="#10243f">N1</text><text x="262" y="84" font-family="Segoe UI, Arial, sans-serif" font-size="10" fill="#4b647f">NAND | 1</text><rect x="444" y="52" width="122" height="42" rx="9" ry="9" fill="#e7f5ff" stroke="#3d4f65" stroke-width="1.1" /><text x="452" y="69" font-family="Segoe UI, Arial, sans-serif" font-size="11" fill="#10243f">N2</text><text x="452" y="84" font-family="Segoe UI, Arial, sans-serif" font-size="10" fill="#4b647f">NAND | 0</text><rect x="444" y="128" width="122" height="42" rx="9" ry="9" fill="#e7f5ff" stroke="#3d4f65" stroke-width="1.1" /><text x="452" y="145" font-family="Segoe UI, Arial, sans-serif" font-size="11" fill="#10243f">N3</text><text x="452" y="160" font-family="Segoe UI, Arial, sans-serif" font-size="10" fill="#4b647f">NAND | 1</text><rect x="634" y="52" width="122" height="42" rx="9" ry="9" fill="#e7f5ff" stroke="#3d4f65" stroke-width="1.1" /><text x="642" y="69" font-family="Segoe UI, Arial, sans-serif" font-size="11" fill="#10243f">N4</text><text x="642" y="84" font-family="Segoe UI, Arial, sans-serif" font-size="10" fill="#4b647f">NAND | 1</text><rect x="824" y="52" width="122" height="42" rx="9" ry="9" fill="#e7f5ff" stroke="#3d4f65" stroke-width="1.1" /><text x="832" y="69" font-family="Segoe UI, Arial, sans-serif" font-size="11" fill="#10243f">N5</text><text x="832" y="84" font-family="Segoe UI, Arial, sans-serif" font-size="10" fill="#4b647f">NAND | 0</text><rect x="1014" y="128" width="122" height="42" rx="9" ry="9" fill="#e7f5ff" stroke="#3d4f65" stroke-width="1.1" /><text x="1022" y="145" font-family="Segoe UI, Arial, sans-serif" font-size="11" fill="#10243f">N6</text><text x="1022" y="160" font-family="Segoe UI, Arial, sans-serif" font-size="10" fill="#4b647f">NAND | 1</text><rect x="1014" y="204" width="122" height="42" rx="9" ry="9" fill="#e7f5ff" stroke="#3d4f65" stroke-width="1.1" /><text x="1022" y="221" font-family="Segoe UI, Arial, sans-serif" font-size="11" fill="#10243f">N7</text><text x="1022" y="236" font-family="Segoe UI, Arial, sans-serif" font-size="10" fill="#4b647f">NAND | 1</text></svg>