<svg xmlns="http://www.w3.org/2000/svg" width="630" height="298" viewBox="0 0 630 298"><defs><marker id="arrow" viewBox="0 0 10 10" refX="8" refY="5" markerWidth="6" markerHeight="6" orient="auto-start-reverse"><path d="M 0 0 L 10 5 L 0 10 z" fill="#7a8ca3" /></marker></defs><rect x="0" y="0" width="100%" height="100%" fill="#fbfcff" /><line x1="186.0" y1="73.0" x2="254.0" y2="149.0" stroke="#7a8ca3" stroke-width="1.2" marker-end="url(#arrow)" /><line x1="186.0" y1="149.0" x2="254.0" y2="149.0" stroke="#7a8ca3" stroke-width="1.2" marker-end="url(#arrow)" /><line x1="186.0" y1="73.0" x2="254.0" y2="73.0" stroke="#7a8ca3" stroke-width="1.2" marker-end="url(#arrow)" /><line x1="186.0" y1="149.0" x2="254.0" y2="73.0" stroke="#7a8ca3" stroke-width="1.2" marker-end="url(#arrow)" /><rect x="64" y="52" width="122" height="42" rx="9" ry="9" fill="#d8f3dc" stroke="#3d4f65" stroke-width="1.1" /><text x="72" y="69" font-family="Segoe UI, Arial, sans-serif" font-size="11" fill="#10243f">a</text><text x="72" y="84" font-family="Segoe UI, Arial, sans-serif" font-size="10" fill="#4b647f">PI | 1</text><rect x="64" y="128" width="122" height="42" rx="9" ry="9" fill="#d8f3dc" stroke="#3d4f65" stroke-width="1.1" /><text x="72" y="145" font-family="Segoe UI, Arial, sans-serif" font-size="11" fill="#10243f">b</text><text x="72" y="160" font-family="Segoe UI, Arial, sans-serif" font-size="10" fill="#4b647f">PI | 0</text><rect x="254" y="128" width="122" height="42" rx="9" ry="9" fill="#ffe8cc" stroke="#3d4f65" stroke-width="1.1" /><text x="262" y="145" font-family="Segoe UI, Arial, sans-serif" font-size="11" fill="#10243f">sum</text><text x="262" y="160" font-family="Segoe UI, Arial, sans-serif" font-size="10" fill="#4b647f">XOR | 1</text><rect x="254" y="52" width="122" height="42" rx="9" ry="9" fill="#ffe8cc" stroke="#3d4f65" stroke-width="1.1" /><text x="262" y="69" font-family="Segoe UI, Arial, sans-serif" font-size="11" fill="#10243f">carry</text><text x="262" y="84" font-family="Segoe UI, Arial, sans-serif" font-size="10" fill="#4b647f">AND | 0</text></svg>